<svg width="28" height="28" viewBox="0 0 28 28" fill="none" xmlns="http://www.w3.org/2000/svg">
<path d="M14 1.83301C20.7192 1.83318 26.1658 7.28079 26.166 14C26.1658 20.7192 20.7192 26.1658 14 26.166C7.28079 26.1658 1.83318 20.7192 1.83301 14C1.83318 7.28079 7.28079 1.83318 14 1.83301ZM3.57422 18C5.05363 21.8531 8.60467 24.6784 12.8652 25.1084C11.1855 23.0141 9.99279 20.5856 9.3584 18H3.57422ZM18.6416 18C18.0071 20.586 16.813 23.0139 15.1328 25.1084C19.3941 24.6789 22.9452 21.8536 24.4248 18H18.6416ZM10.3896 18C11.0492 20.5325 12.2778 22.8983 13.999 24.9092C15.7206 22.8981 16.9497 20.5329 17.6094 18H10.3896ZM3.24414 11C2.97845 11.9547 2.83304 12.9606 2.83301 14C2.83304 15.0395 2.97841 16.0452 3.24414 17H9.14258C8.95921 16.0191 8.85403 15.019 8.83301 14.0098C8.83288 14.003 8.83287 13.996 8.83301 13.9893C8.85405 12.9803 8.95926 11.9807 9.14258 11H3.24414ZM10.1611 11C9.96649 11.9825 9.85478 12.9857 9.83301 13.999C9.8547 15.013 9.96636 16.0169 10.1611 17H17.8389C18.0336 16.017 18.1433 15.013 18.165 13.999C18.1433 12.9857 18.0335 11.9824 17.8389 11H10.1611ZM18.8564 11C19.0398 11.9807 19.145 12.9803 19.166 13.9893C19.1662 13.996 19.1661 14.003 19.166 14.0098C19.145 15.019 19.0398 16.0191 18.8564 17H24.7549C25.0207 16.0452 25.166 15.0396 25.166 14C25.166 12.9606 25.0206 11.9547 24.7549 11H18.8564ZM12.8652 2.88965C8.60444 3.31964 5.05356 6.1466 3.57422 10H9.3584C9.99288 7.41378 11.1849 4.9843 12.8652 2.88965ZM13.999 3.08887C12.2773 5.10012 11.0493 7.46685 10.3896 10H17.6094C16.9497 7.46667 15.721 5.1002 13.999 3.08887ZM15.1328 2.88965C16.8134 4.98445 18.0071 7.41352 18.6416 10H24.4258C22.9463 6.14612 19.3943 3.31911 15.1328 2.88965Z" fill="white"/>
</svg>
