<svg width="130" height="19" viewBox="0 0 130 19" fill="none" xmlns="http://www.w3.org/2000/svg">
<path d="M63.4785 3.02036H70.6519C73.805 3.02036 75.4172 4.37749 75.4172 6.85706C75.4172 8.37745 74.8458 9.41826 73.6111 9.98969C75.1927 10.6121 75.9682 11.8162 75.9682 13.5917C75.9682 16.4692 73.9988 18.2039 70.4172 18.2039H63.4785V3.02036ZM70.0499 8.87745C71.5601 8.87745 72.2846 8.39786 72.2846 7.23461C72.2846 6.07135 71.5397 5.65299 70.0295 5.65299H66.4887V8.87745H70.0499ZM70.1927 15.459C71.8968 15.459 72.6825 14.8876 72.6825 13.4897C72.6825 12.0101 71.8968 11.4897 70.1723 11.4897H66.4887V15.4692H70.1825L70.1927 15.459Z" fill="#B3B3B3"/>
<path d="M88.0501 3.02036L93.5296 18.2039H90.2643L89.2031 15.0815H83.3256L82.3154 18.2039H79.0195L84.4379 3.02036H88.0399H88.0501ZM84.1624 12.5407H88.397L86.2848 6.05094L84.1624 12.5407Z" fill="#B3B3B3"/>
<path d="M97.4783 3.02036H100.764L106.937 13.459V3.02036H110.029V18.2039H106.784L100.58 7.76521V18.2039H97.4783V3.02036Z" fill="#B3B3B3"/>
<path d="M116.07 3.02036H119.203V9.23459L125.131 3.02036H129.05L122.988 9.17337L129.601 18.2039H125.764L120.825 11.255L119.203 12.8468V18.2039H116.07V3.02036Z" fill="#B3B3B3"/>
<path d="M9.02034 3.02036L14.4999 18.2039H11.2244L10.1938 15.0815H4.28568L3.29589 18.2039H0L5.40812 3.02036H9.02034ZM5.11221 12.5305H9.33666L7.22443 6.07135L5.102 12.5305H5.11221Z" fill="#B3B3B3"/>
<path d="M18.8777 3.02036H26.0409C29.1837 3.02036 30.8164 4.38769 30.8164 6.85706C30.8164 8.37746 30.2245 9.41826 29.0001 9.98969C30.5817 10.6223 31.347 11.806 31.347 13.5917C31.347 16.4794 29.398 18.2141 25.8164 18.2141H18.8879V3.02036H18.8777ZM25.4491 8.88765C26.9491 8.88765 27.6633 8.39786 27.6633 7.23461C27.6633 6.07135 26.9286 5.65299 25.4185 5.65299H21.8777V8.88765H25.4491ZM25.5715 15.459C27.2858 15.459 28.0919 14.8774 28.0919 13.4897C28.0919 12.0101 27.2858 11.4795 25.5511 11.4795H21.8777V15.459H25.5715Z" fill="#B3B3B3"/>
<path d="M43.4589 3.02036L48.9384 18.2039H45.6629L44.6221 15.0815H38.7242L37.7344 18.2039H34.4487L39.8466 3.02036H43.4589ZM39.5507 12.5305H43.7752L41.663 6.07135L39.5507 12.5305Z" fill="#B3B3B3"/>
<path d="M53.275 0H50.3464V6.03056H53.275V0Z" fill="#CCCCCC"/>
</svg>
