<svg width="130" height="32" viewBox="0 0 130 32" fill="none" xmlns="http://www.w3.org/2000/svg">
<path d="M63.4785 9.9133H70.6519C73.805 9.9133 75.4172 11.2704 75.4172 13.75C75.4172 15.2704 74.8458 16.3112 73.6111 16.8826C75.1927 17.5051 75.9682 18.7091 75.9682 20.4846C75.9682 23.3622 73.9988 25.0968 70.4172 25.0968H63.4785V9.9133V9.9133ZM70.0499 15.7704C71.5601 15.7704 72.2846 15.2908 72.2846 14.1276C72.2846 12.9643 71.5397 12.5459 70.0295 12.5459H66.4887V15.7704H70.0499ZM70.1927 22.352C71.8968 22.352 72.6825 21.7806 72.6825 20.3826C72.6825 18.903 71.8968 18.3826 70.1723 18.3826H66.4887V22.3622H70.1825L70.1927 22.352Z" fill="#B3B3B3"/>
<path d="M88.0501 9.9133L93.5296 25.0968H90.2643L89.2031 21.9744H83.3256L82.3154 25.0968H79.0195L84.4379 9.9133H88.0399H88.0501ZM84.1624 19.4336H88.397L86.2848 12.9439L84.1624 19.4336V19.4336Z" fill="#B3B3B3"/>
<path d="M97.4783 9.9133H100.764L106.937 20.352V9.9133H110.029V25.0968H106.784L100.58 14.6582V25.0968H97.4783V9.9133Z" fill="#B3B3B3"/>
<path d="M116.07 9.9133H119.203V16.1275L125.131 9.9133H129.05L122.988 16.0663L129.601 25.0968H125.764L120.825 18.1479L119.203 19.7398V25.0968H116.07V9.9133Z" fill="#B3B3B3"/>
<path d="M9.02034 9.9133L14.4999 25.0968H11.2244L10.1938 21.9744H4.28568L3.29589 25.0968H0L5.40812 9.9133H9.02034ZM5.11221 19.4234H9.33666L7.22443 12.9643L5.102 19.4234H5.11221Z" fill="#B3B3B3"/>
<path d="M18.8777 9.9133H26.0409C29.1837 9.9133 30.8164 11.2806 30.8164 13.75C30.8164 15.2704 30.2245 16.3112 29.0001 16.8826C30.5817 17.5153 31.347 18.6989 31.347 20.4846C31.347 23.3724 29.398 25.1071 25.8164 25.1071H18.8879V9.9133H18.8777ZM25.4491 15.7806C26.9491 15.7806 27.6633 15.2908 27.6633 14.1276C27.6633 12.9643 26.9286 12.5459 25.4185 12.5459H21.8777V15.7806H25.4491ZM25.5715 22.352C27.2858 22.352 28.0919 21.7703 28.0919 20.3826C28.0919 18.903 27.2858 18.3724 25.5511 18.3724H21.8777V22.352H25.5715V22.352Z" fill="#B3B3B3"/>
<path d="M43.4589 9.9133L48.9384 25.0968H45.6629L44.6221 21.9744H38.7242L37.7344 25.0968H34.4487L39.8466 9.9133H43.4589V9.9133ZM39.5507 19.4234H43.7752L41.663 12.9643L39.5507 19.4234Z" fill="#B3B3B3"/>
<path d="M53.275 6.89294H50.3464V12.9235H53.275V6.89294Z" fill="#CCCCCC"/>
</svg>
