<svg width="123" height="32" viewBox="0 0 123 32" fill="none" xmlns="http://www.w3.org/2000/svg">
<path d="M16.0994 4.65063C16.1369 4.68852 16.3925 5.51232 16.4539 5.66235C16.9104 6.77741 17.6165 7.73677 17.698 8.97974C17.7898 10.3753 17.284 11.7169 16.8435 13.0071C17.5101 12.5556 18.0958 11.809 18.4363 11.0725C18.5337 10.8615 18.783 10.2607 18.8064 10.0559C18.8224 9.91375 18.7106 9.71515 18.7009 9.54224C18.6798 9.15824 18.8236 8.89891 19.0378 8.60376C19.2313 8.33751 19.2171 8.23875 19.3328 7.92896C19.3878 7.78156 19.454 7.64104 19.5203 7.49927C19.5864 7.49065 19.5566 7.58356 19.5525 7.62524C19.5305 7.8503 19.4615 8.10293 19.408 8.32349C20.5279 7.858 21.6496 9.05738 21.0007 10.135C20.8036 10.4624 20.5577 10.4781 20.3542 10.6829C20.0961 10.9432 19.8029 11.459 19.5388 11.7717C18.7144 12.7461 17.7304 13.3125 16.9167 14.1868C15.8063 15.3795 15.5633 17.1307 16.3054 18.5901C16.3649 18.6047 16.3793 18.537 16.406 18.5051C16.9235 17.893 17.2613 17.3387 17.8845 16.7727C18.8146 15.9284 20.1242 15.4961 20.5339 14.2356C21.0291 12.7102 20.7832 11.6214 22.2156 10.4602C22.2446 10.4366 22.4775 10.2642 22.4187 10.4026C22.3917 10.4638 22.0593 10.8216 21.9802 10.9338C21.4091 11.7452 20.9991 12.649 20.8328 13.637C20.7736 13.9883 20.7588 14.3409 20.7097 14.6926C21.0944 14.6277 21.462 14.2904 21.7146 14.0012C22.2317 13.4086 22.489 12.6544 22.7908 11.9387C22.5078 11.984 22.2676 11.9585 22.0857 11.7141C21.6638 11.1466 22.2738 10.4441 22.8855 10.7581L23.1628 11.0208C23.2667 10.7908 23.5151 10.2681 23.7019 10.1184C23.8621 9.99022 23.8036 10.0142 23.9275 9.82446C25.8979 6.80943 30.1166 9.21149 28.9617 12.5012C28.2258 14.5968 25.5901 15.0965 24.1677 13.3616C23.5497 12.6076 23.5039 11.8597 23.5359 10.928C23.5375 10.8861 23.5592 10.7866 23.4978 10.7961C22.9327 12.5957 22.0153 14.2954 20.4246 15.3606L18.7029 16.4163C19.0903 16.4708 19.2062 16.2128 19.4822 16.0598C20.0912 15.7219 20.7489 15.813 21.2869 16.2297C22.2034 16.1622 23.0762 16.1167 23.9314 15.7493C24.6661 15.4331 25.2244 14.9252 25.8386 14.4309C25.8549 14.5008 25.8007 14.5201 25.7654 14.5618C25.3097 15.1082 24.5933 15.6141 23.9441 15.8928L24.3503 16.0627C25.0866 16.6074 24.4512 17.7843 23.6003 17.3811C23.1167 17.1519 23.0271 16.5398 23.3865 16.1545C22.7521 16.305 22.1111 16.4544 21.4529 16.4172C22.2836 17.5457 21.463 19.0695 20.0603 18.927C19.1692 18.8362 18.6333 17.9851 18.7498 17.1194C18.771 16.9629 18.8502 16.8574 18.8875 16.7346C18.9034 16.6818 18.8868 16.6694 18.8357 16.6809C18.6461 16.7248 18.1779 16.9958 17.9998 17.1125C17.5079 17.4362 17.0476 17.9303 16.7537 18.4426C16.6733 18.5825 16.3808 19.0699 16.5837 19.1702C16.6648 19.2103 17.0738 19.2055 17.2244 19.2366C18.1125 19.4204 18.9963 20.2657 19.9089 20.5774C20.4802 20.7723 21.0456 20.8179 21.6384 20.8948C21.0013 21.0503 20.3815 20.9115 19.78 20.6887C20.779 21.82 19.8473 23.1957 18.4324 23.0022C17.9678 22.9386 17.4828 22.531 17.3367 22.0833C16.9864 21.0081 17.9602 20.233 18.9617 20.2952C18.5774 20.0739 18.1906 19.8263 17.7859 19.6448C17.0702 19.3241 16.2657 19.081 16.0369 20.0813C15.6183 21.9098 15.643 24.6447 15.8406 26.5149C15.9846 27.8786 16.2857 29.2185 16.6208 30.5432C16.5707 30.544 16.5179 30.5533 16.4714 30.5256C16.3851 30.4743 16.0896 29.277 16.0437 29.0833C15.432 26.4861 15.3049 23.8058 15.697 21.1633C15.8008 20.4642 16.1272 19.4704 16.0525 18.8069C15.9986 18.3295 15.7612 17.8107 15.696 17.2932C15.6391 16.8409 15.6542 16.3856 15.6531 15.9299C15.3635 16.2271 15.2199 16.306 14.948 15.9299C14.9458 16.1793 14.9754 16.4381 14.865 16.6702L14.7488 16.7073L13.1638 15.7043L13.6531 16.5042C14.1494 17.4362 14.4641 18.7121 14.3923 19.7717C14.3741 20.0414 14.3458 20.4726 14.0281 20.5315C13.7521 20.5825 13.7278 20.312 13.5876 20.1301C12.6784 18.9467 11.0591 18.6604 10.0486 17.2903C9.48687 16.529 9.04368 15.6676 8.51733 14.8811L8.23608 15.5901C7.67269 16.3981 6.4351 16.3975 5.92358 15.5286C5.4006 14.6396 5.91517 13.56 6.91968 13.4006L4.94995 12.2385L5.1355 12.2571C4.93541 11.6607 5.61859 11.1285 6.12085 11.5452C6.44172 11.8119 6.3863 12.3664 6.02808 12.5764C6.31077 12.7418 6.59858 12.8968 6.87866 13.0667C7.20905 13.2669 7.38156 13.3764 7.73315 13.5549C8.2306 13.8077 8.23621 14.0812 8.4646 14.5042C8.57146 14.7017 8.77789 14.9115 8.90503 15.1086C9.5643 16.1311 10.0808 17.0805 11.0281 17.8772C12.011 18.7042 13.1763 19.3198 14.0554 20.2766C14.3177 18.9908 14.0776 17.6129 13.4031 16.4944C12.736 15.3879 11.7064 14.7077 10.8582 13.7756C9.9316 12.7574 9.55938 11.9396 8.15503 11.4426C7.65946 11.2671 7.19069 11.2336 6.70776 11.1008C6.64435 11.0835 6.60498 11.1271 6.6228 11.0208C7.9569 10.9196 9.15742 11.4619 10.0417 12.4446L8.85327 8.11646L8.92651 8.0979C9.76363 9.74601 9.77957 11.7303 10.8298 13.2805C11.507 14.2797 12.5718 15.0762 13.5759 15.7209C13.6823 15.7892 14.6814 16.429 14.7253 16.3792C14.6547 14.6838 14.1178 13.0686 13.0515 11.7532C12.7583 11.3916 12.4014 11.0949 12.113 10.7307L12.0125 10.6838C12.2166 10.7136 12.423 10.8948 12.5867 11.0227C13.1272 11.4465 13.5991 12.0143 13.9607 12.5979C14.0726 12.7787 14.1621 13.0159 14.2703 13.1838C14.2935 13.2201 14.2667 13.2503 14.3533 13.2317C14.4251 12.7467 14.5463 12.2707 14.6091 11.7834C14.6315 11.611 14.7306 10.898 14.6697 10.7961C14.6526 10.7676 14.4685 10.6424 14.4089 10.5715C12.8517 8.72393 15.9374 6.66555 17.0232 8.7229C17.7502 10.101 16.3606 11.5562 14.949 10.9827C14.898 12.5839 14.2949 14.4194 15.2644 15.8538C16.126 14.3647 16.7795 12.7436 17.1609 11.0588C17.338 10.2764 17.5883 9.21854 17.2908 8.45337C17.0624 7.86534 16.6455 7.81674 16.1951 7.46021C15.6269 7.0101 15.1975 6.31768 14.491 6.07837C14.1944 6.5157 13.6633 6.72091 13.1755 6.45728C12.5278 6.10732 12.5361 5.10009 13.2009 4.78052C13.9881 4.40231 14.7632 5.09078 14.5398 5.92407L14.5388 5.92505C15.6023 6.1173 16.0976 7.27341 17.0857 7.64771C17.0793 7.4783 16.9528 7.35518 16.8855 7.21313C16.5217 6.4484 16.1889 5.53472 16.033 4.69946C16.0193 4.62664 16.0786 4.63061 16.0994 4.65063ZM18.7283 28.342C20.3696 28.0792 20.3268 30.5555 18.7966 30.3538C17.686 30.2071 17.6943 28.5078 18.7283 28.342ZM6.08276 16.9417C7.3206 17.9326 7.85891 19.3074 9.69019 19.1926C9.9989 19.1731 10.3126 19.0641 10.6179 19.0413C12.0405 18.9355 13.3118 19.6207 13.739 21.0266C14.4954 23.5168 14.3598 27.6963 13.5085 30.1614C13.4516 30.3264 13.4399 30.3825 13.238 30.3567L13.2566 30.2073L13.4236 29.7571C13.636 28.7991 13.8474 27.8325 13.9441 26.8528C14.1141 25.1251 14.142 21.5467 13.0515 20.1467C11.755 18.4833 9.88953 19.8321 8.26929 19.1223C7.47383 18.7735 6.64299 17.7475 6.11987 17.054C6.09735 17.0244 6.01929 16.9816 6.08276 16.9417ZM10.5886 27.8176C12.2793 27.5487 12.5304 30.0661 10.9841 30.2405C9.34939 30.4241 9.13821 28.0487 10.5886 27.8176ZM21.4421 26.3557C23.7409 25.9958 23.808 29.4698 21.657 29.344C19.8637 29.239 19.827 26.6089 21.4421 26.3557ZM7.28101 25.3088C9.59587 25.0295 9.85396 28.7181 7.64136 28.8948C5.41385 29.0721 5.15594 25.5654 7.28101 25.3088ZM18.1736 24.4094C20.3718 24.3104 20.5476 27.8474 18.4207 28.0334C16.0752 28.2386 15.9479 24.5099 18.1736 24.4094ZM24.489 25.2698C25.7451 25.0669 25.8987 26.9049 24.7361 27.0178C23.6509 27.1228 23.4309 25.4412 24.489 25.2698ZM4.30737 25.7571C5.1067 25.6254 5.28355 26.8132 4.54956 26.9377C3.67569 27.0858 3.59454 25.8749 4.30737 25.7571ZM10.7751 22.8352C13.0886 22.4984 12.8314 26.0698 10.7078 25.5432C9.27268 25.187 9.40458 23.0351 10.7751 22.8352ZM26.0515 22.1985C28.3618 21.9003 28.3386 25.3855 26.1912 25.2229C24.3879 25.0856 24.3642 22.4167 26.0515 22.1985ZM3.37964 22.1233C5.31544 21.859 5.4373 25.0561 3.30444 24.7639C1.90058 24.5712 1.877 22.3288 3.37964 22.1233ZM22.6335 21.262C24.9143 20.9848 25.2282 24.4029 23.1023 24.6565C20.7941 24.9318 20.4701 21.525 22.6335 21.262ZM19.6804 24.4221C18.9291 23.6427 20.2956 22.5623 20.8279 23.51C21.2644 24.2875 20.2586 25.0211 19.6804 24.4221ZM6.13062 22.0461C7.34529 21.9375 7.43654 23.8441 6.22925 23.8752C5.10137 23.9043 4.97656 22.1497 6.13062 22.0461ZM16.4607 22.5344C17.4574 22.3656 17.4574 23.8893 16.4919 23.7581C15.8414 23.6691 15.8125 22.6444 16.4607 22.5344ZM8.58179 20.9241C9.81442 20.7733 10.0291 22.6707 8.82886 22.8215C7.5627 22.9802 7.3631 21.0734 8.58179 20.9241ZM11.1101 20.9973C11.3362 20.9615 11.6002 21.0629 11.7214 21.262C12.124 21.9236 11.2567 22.5135 10.7849 22.0188C10.4673 21.6857 10.6588 21.0693 11.1101 20.9973ZM27.7605 20.4368C28.8643 20.2764 28.9726 21.8739 28.0076 21.9973C26.982 22.1284 26.7754 20.5797 27.7605 20.4368ZM2.56128 15.6418C5.17153 15.3875 6.78623 18.4173 5.07886 20.427C3.3927 22.4112 0.159107 21.2809 0.00463867 18.6838C-0.0839063 17.1952 1.08842 15.7853 2.56128 15.6418ZM6.38843 19.8362C7.12142 19.6835 7.4626 20.585 6.87964 20.968C6.36285 21.3071 5.71457 20.7073 6.01929 20.1379C6.08088 20.0232 6.26133 19.8628 6.38843 19.8362ZM24.2673 18.4133C26.2813 18.12 26.4014 21.0322 24.5486 21.0491C22.8928 21.0643 22.8414 18.6209 24.2673 18.4133ZM26.8171 17.1799C27.62 16.3937 28.9794 16.5521 29.5613 17.5168C30.4224 18.9447 29.0979 20.6022 27.5183 20.1379C26.2769 19.7729 25.8998 18.0786 26.8171 17.1799ZM28.99 14.3274C29.9518 14.2785 30.0716 15.7846 29.0896 15.8567C28.0761 15.931 28.0052 14.3777 28.99 14.3274ZM0.96167 14.4026C1.63026 14.2964 1.96581 15.1657 1.41479 15.5344C1.21505 15.6681 0.941719 15.6769 0.736084 15.5491C0.260643 15.2535 0.408933 14.4905 0.96167 14.4026ZM4.00854 13.803C4.99662 13.5963 5.05331 15.1442 4.07886 15.0276C3.41226 14.9477 3.40953 13.9286 4.00854 13.803ZM18.9255 10.2717C18.6287 11.2326 18.0525 12.4991 17.2527 13.1379C17.0574 13.2939 16.9205 13.3171 16.6921 13.3977L16.323 14.3557C16.3502 14.3817 16.6182 14.1462 16.658 14.1125C17.1754 13.676 17.7275 13.1586 18.2185 12.6887C18.8811 12.0545 19.509 11.3768 20.1511 10.7219V10.7209C19.8272 10.7449 19.5617 10.695 19.2849 10.5266C19.2261 10.4905 18.9534 10.2472 18.9255 10.2717ZM1.59448 12.0422C3.13216 11.7786 3.15078 14.1029 1.66284 13.9036C0.644517 13.7667 0.684427 12.1986 1.59448 12.0422ZM2.96948 9.00806C4.53642 8.79563 5.04926 11.0739 3.58081 11.5735C1.76287 12.1914 1.14541 9.25597 2.96948 9.00806ZM7.6521 8.67017C8.96948 8.51339 9.18289 10.5678 7.89917 10.718C6.53908 10.877 6.31766 8.82924 7.6521 8.67017ZM22.7058 7.35864C24.1035 7.17272 24.6551 9.19177 23.3601 9.74243C21.5962 10.4922 20.8734 7.60245 22.7058 7.35864ZM10.8865 7.62134C12.2657 7.41956 12.4435 9.45125 11.1697 9.59302C9.87482 9.73671 9.67812 7.79837 10.8865 7.62134ZM4.75366 6.83423C5.94359 6.68798 6.3959 8.40693 5.30737 8.85474C3.77355 9.48568 3.22681 7.02214 4.75366 6.83423ZM25.4832 6.32153C26.7563 6.32153 26.7065 8.25122 25.4832 8.25122C24.2601 8.25096 24.2144 6.32178 25.4832 6.32153ZM18.282 5.89673C19.5178 5.69746 19.8979 7.48821 18.7673 7.8479C17.3729 8.29124 16.9515 6.11165 18.282 5.89673ZM6.53784 4.1731C8.62158 3.86555 8.59299 7.16433 6.54565 6.84497C5.05749 6.61243 5.11678 4.38333 6.53784 4.1731ZM21.8787 4.80005C22.8645 3.63063 24.5934 5.24248 23.5203 6.32349C22.5403 7.30997 20.9433 5.90956 21.8787 4.80005ZM10.3669 2.18774C12.1213 1.96381 13.2498 3.9302 12.1218 5.30591C11.0696 6.58894 8.92224 5.91792 8.78198 4.2522C8.70109 3.29022 9.39414 2.31226 10.3669 2.18774ZM19.9187 2.18774C21.8946 1.8982 21.8533 4.9422 19.9265 4.63403C18.5846 4.41913 18.6351 2.37635 19.9187 2.18774ZM16.3513 1.66235C18.4831 1.36885 18.509 4.69848 16.3132 4.37817C14.882 4.16879 14.8636 1.8675 16.3513 1.66235ZM13.5251 1.47485C15.0217 1.22004 15.0658 3.51447 13.6316 3.37231C12.5643 3.26643 12.5363 1.64326 13.5251 1.47485Z" fill="#B3B3B3"/>
<path fill-rule="evenodd" clip-rule="evenodd" d="M102.067 28.9385C101.734 29.3758 101.625 29.8623 101.685 30.4113L103.601 30.4098C108.041 25.5795 113.629 22.0795 119.158 18.616C120.114 18.0175 121.068 17.42 122.014 16.817C123.069 15.8128 122.662 13.9294 121.047 14.8027L111.919 20.5986C112.399 19.7024 113.104 18.9444 113.808 18.1881C114.337 17.62 114.864 17.0528 115.295 16.4287C115.807 15.6878 116.682 14.1317 115.159 14.1407C114.37 14.1462 112.885 15.3818 111.75 16.3267C111.346 16.6637 110.985 16.9637 110.717 17.1577C108.457 18.7911 106.016 20.2981 103.308 21.0479C103.096 20.8188 104.406 19.047 104.636 18.7495C105.226 17.9887 105.924 17.3166 106.62 16.6467C107.237 16.0523 107.853 15.4597 108.389 14.8086C108.435 14.7526 108.483 14.6957 108.532 14.6379C108.992 14.0956 109.513 13.4794 108.831 12.8717C107.914 12.0533 106.872 13.1689 106.084 14.0127C105.875 14.2365 105.684 14.4411 105.518 14.5855C103.806 16.0717 101.971 17.5177 100.055 18.7316C98.3876 19.7878 96.4374 20.9869 94.471 21.1952C94.8251 20.4837 95.4629 19.7005 96.1251 18.8871C97.2021 17.5643 98.344 16.1618 98.4362 14.8592C98.4834 14.2017 98.1355 13.5069 97.4589 13.3522C95.9152 12.9998 94.1788 14.1559 92.6635 15.1648C92.0997 15.5402 91.5664 15.8952 91.0851 16.1446C92.7198 9.7238 86.6541 13.5114 84.3825 15.5495C84.3467 15.3901 84.3369 15.23 84.3277 15.0787C84.3008 14.6383 84.2784 14.2723 83.6322 14.2136C83.0246 14.1586 81.8749 15.0997 81.0101 15.8076C80.7042 16.058 80.434 16.2792 80.236 16.4168C77.8156 18.1008 74.9648 19.9857 72.164 20.9036C72.0881 20.9285 72.0082 20.9552 71.9249 20.983C70.847 21.3433 69.2058 21.8919 68.4067 21.0509C70.6443 20.255 76.5287 16.6935 76.3519 13.9979C76.3106 13.3775 75.6812 12.7795 75.1358 12.5489C72.9791 11.6388 70.3452 13.7532 68.3298 15.3711C67.8382 15.7657 67.3834 16.1309 66.9812 16.4153C66.113 17.0297 59.58 21.6296 58.983 21.0494C59.7965 19.3319 60.9438 17.7338 62.0639 16.1736C62.2245 15.95 62.3845 15.7272 62.5429 15.5049C65.4748 11.39 68.6263 7.40156 72.0152 3.66306L72.6755 1.87638C72.4738 1.8662 72.3424 1.76811 72.2096 1.66909C72.0514 1.55103 71.8913 1.43164 71.6083 1.45834C71.2428 1.49404 70.6605 1.9091 70.3878 2.16944C68.1182 4.33858 66.263 6.85532 64.3957 9.38856C61.9612 12.6911 59.506 16.0218 56.085 18.6468C55.3951 19.1764 52.1021 21.5597 51.4166 21.335C50.7508 20.7534 51.5561 19.7984 52.037 19.2281C52.0703 19.1886 52.102 19.151 52.1316 19.1154C53.0971 17.9521 54.947 16.3558 56.3326 15.7756C56.9378 15.5223 57.4563 15.4478 57.9716 15.3737C58.3036 15.326 58.6343 15.2785 58.9859 15.1835C60.1062 14.88 61.0378 12.8062 59.6331 12.5876C56.9463 12.1699 54.0498 14.3366 51.6203 16.1539C50.9348 16.6667 50.2865 17.1517 49.6905 17.543C47.6976 18.8506 42.2952 22.0744 40.0089 21.393C40.0155 21.395 40.0024 21.3911 40.0089 21.393C39.8272 21.339 39.5772 21.2647 39.5416 21.0494C41.6805 20.2133 46.6923 17.2603 47.276 14.9589C47.8863 12.5533 45.7297 12.0089 43.8636 12.5548C40.7061 13.4787 36.1601 18.2154 36.4417 21.7233C36.5419 22.9833 37.8877 23.7525 39.0272 23.87C42.1718 24.1939 45.1647 22.6765 47.9099 21.2847C48.1656 21.155 48.4192 21.0265 48.6705 20.9006C48.3624 25.4588 51.8427 24.0083 54.3662 22.5608C54.4382 22.5193 54.6172 22.3954 54.8395 22.2416C55.4047 21.8506 56.2499 21.2658 56.3282 21.3469C55.3598 24.3461 57.8789 24.2255 59.9161 23.4058C61.1766 22.8989 62.4114 22.0956 63.6179 21.3107C64.2386 20.9069 64.8517 20.508 65.4571 20.1568C64.4061 25.2148 70.3863 24.0247 73.2991 22.9432C74.4175 22.5273 75.4576 21.9579 76.4975 21.3886C77.0831 21.068 77.6686 20.7475 78.2681 20.4543C78.3175 20.5041 78.1632 20.7794 77.9511 21.1579C77.4539 22.0453 76.6387 23.5 77.3837 23.9474C78.2925 24.4928 79.6238 22.9319 80.5157 21.8861C80.7624 21.597 80.9754 21.3472 81.1366 21.1922C82.7227 19.6673 84.67 18.022 86.4698 16.7649C86.7071 16.5983 88.6322 15.3055 88.7236 15.4007C88.6821 15.7373 88.48 16.091 88.3063 16.395C88.2888 16.4256 88.2716 16.4557 88.2549 16.4852C87.8821 17.1451 87.2582 17.9897 86.6097 18.8675C85.6224 20.2042 84.578 21.6179 84.2764 22.5742C83.9433 23.629 84.325 24.0381 85.4041 23.8626C85.9128 23.7801 86.1056 23.4921 86.3082 23.1894C86.4091 23.0387 86.5125 22.8843 86.6585 22.7498C87.8893 21.6192 89.412 20.3041 90.718 19.2672C91.6585 18.5218 94.1084 16.6013 95.1343 16.2933C95.3245 16.2368 95.4247 16.3246 95.351 16.512C95.1632 16.9905 94.4842 17.7433 93.8202 18.4796C93.3322 19.0206 92.8522 19.5527 92.5813 19.9604C89.956 23.9102 92.3469 24.7105 95.9804 23.391C97.1821 22.9542 98.2972 22.315 99.4074 21.6786C99.8702 21.4134 100.332 21.1486 100.799 20.8991C99.8793 24.2657 102.767 24.288 104.977 23.1068L108.606 21.0494L102.067 28.9385ZM44.5475 14.9559C42.6371 15.2653 40.9022 16.7843 39.8364 18.3716C40.034 18.5367 42.758 16.8319 43.1221 16.5626C43.1356 16.5526 43.153 16.54 43.1737 16.5249C43.5301 16.265 44.8763 15.2835 44.5475 14.9559ZM68.7 18.3716C70.5028 17.6679 72.2333 16.5998 73.5556 15.1776C73.588 14.4665 71.5243 15.6849 71.3607 15.7845C70.2478 16.4629 69.4488 17.3153 68.7 18.3716Z" fill="#B3B3B3"/>
</svg>
