<svg width="123" height="30" viewBox="0 0 123 30" fill="none" xmlns="http://www.w3.org/2000/svg">
<path d="M16.0991 3.19608C16.1367 3.23396 16.3922 4.05776 16.4536 4.20779C16.9101 5.32285 17.6163 6.28221 17.6978 7.52518C17.7896 8.92076 17.2837 10.2623 16.8433 11.5525C17.5098 11.101 18.0956 10.3545 18.436 9.61795C18.5334 9.40692 18.7828 8.80616 18.8062 8.60135C18.8222 8.45919 18.7104 8.26059 18.7007 8.08768C18.6795 7.70368 18.8233 7.44435 19.0376 7.1492C19.231 6.88295 19.2168 6.78419 19.3325 6.4744C19.3876 6.327 19.4538 6.18648 19.52 6.04471C19.5862 6.03609 19.5564 6.129 19.5522 6.17068C19.5303 6.39574 19.4613 6.64838 19.4077 6.86893C20.5276 6.40344 21.6494 7.60282 21.0005 8.68045C20.8033 9.00781 20.5575 9.02352 20.354 9.2283C20.0958 9.48868 19.8027 10.0044 19.5386 10.3172C18.7141 11.2915 17.7302 11.8579 16.9165 12.7322C15.8061 13.9249 15.563 15.6762 16.3052 17.1355C16.3646 17.1501 16.379 17.0825 16.4058 17.0506C16.9233 16.4384 17.2611 15.8842 17.8843 15.3181C18.8144 14.4739 20.124 14.0416 20.5337 12.781C21.0289 11.2557 20.7829 10.1668 22.2153 9.00565C22.2444 8.98202 22.4772 8.80962 22.4185 8.94803C22.3914 9.00922 22.059 9.36706 21.98 9.47928C21.4089 10.2906 20.9988 11.1944 20.8325 12.1824C20.7734 12.5338 20.7586 12.8863 20.7095 13.2381C21.0942 13.1732 21.4617 12.8359 21.7144 12.5467C22.2315 11.954 22.4888 11.1998 22.7905 10.4842C22.5076 10.5295 22.2673 10.5039 22.0854 10.2596C21.6635 9.69204 22.2736 8.98955 22.8853 9.3035L23.1626 9.56619C23.2664 9.33623 23.5149 8.8135 23.7017 8.66385C23.8619 8.53566 23.8034 8.55966 23.9272 8.3699C25.8977 5.35487 30.1164 7.75693 28.9614 11.0467C28.2255 13.1422 25.5899 13.642 24.1675 11.907C23.5495 11.1531 23.5036 10.4051 23.5356 9.47342C23.5373 9.43158 23.559 9.332 23.4976 9.34158C22.9324 11.1411 22.0151 12.8408 20.4243 13.906L18.7026 14.9617C19.0901 15.0163 19.2059 14.7583 19.4819 14.6053C20.091 14.2673 20.7486 14.3585 21.2866 14.7752C22.2032 14.7077 23.076 14.6622 23.9312 14.2947C24.6659 13.9785 25.2242 13.4707 25.8384 12.9763C25.8547 13.0462 25.8005 13.0655 25.7651 13.1072C25.3094 13.6536 24.593 14.1596 23.9438 14.4383L24.3501 14.6082C25.0863 15.1528 24.451 16.3297 23.6001 15.9265C23.1164 15.6974 23.0268 15.0852 23.3862 14.7C22.7519 14.8504 22.1108 14.9998 21.4526 14.9627C22.2833 16.0912 21.4628 17.615 20.0601 17.4724C19.169 17.3817 18.6331 16.5305 18.7495 15.6648C18.7707 15.5083 18.85 15.4029 18.8872 15.2801C18.9032 15.2273 18.8865 15.2148 18.8354 15.2263C18.6458 15.2702 18.1777 15.5412 17.9995 15.658C17.5077 15.9817 17.0473 16.4757 16.7534 16.9881C16.6731 17.1279 16.3806 17.6153 16.5835 17.7156C16.6646 17.7557 17.0736 17.7509 17.2241 17.782C18.1122 17.9658 18.996 18.8111 19.9087 19.1228C20.48 19.3178 21.0453 19.3634 21.6382 19.4402C21.001 19.5957 20.3813 19.4569 19.7798 19.2342C20.7788 20.3654 19.8471 21.7412 18.4321 21.5476C17.9676 21.4841 17.4826 21.0764 17.3364 20.6287C16.9862 19.5535 17.96 18.7785 18.9614 18.8406C18.5772 18.6193 18.1903 18.3717 17.7856 18.1902C17.0699 17.8696 16.2655 17.6264 16.0366 18.6267C15.6181 20.4552 15.6428 23.1902 15.8403 25.0603C15.9843 26.4241 16.2854 27.7639 16.6206 29.0887C16.5704 29.0894 16.5177 29.0988 16.4712 29.0711C16.3849 29.0197 16.0894 27.8225 16.0435 27.6287C15.4318 25.0316 15.3046 22.3513 15.6968 19.7088C15.8006 19.0097 16.127 18.0159 16.0522 17.3523C15.9983 16.8749 15.761 16.3562 15.6958 15.8387C15.6389 15.3863 15.6539 14.9311 15.6528 14.4754C15.3632 14.7726 15.2196 14.8514 14.9478 14.4754C14.9455 14.7247 14.9752 14.9835 14.8647 15.2156L14.7485 15.2527L13.1636 14.2498L13.6528 15.0496C14.1491 15.9816 14.4639 17.2576 14.3921 18.3172C14.3739 18.5868 14.3455 19.018 14.0278 19.0769C13.7519 19.1279 13.7275 18.8575 13.5874 18.6756C12.6781 17.4922 11.0589 17.2059 10.0483 15.8357C9.48663 15.0744 9.04343 14.213 8.51709 13.4265L8.23584 14.1355C7.67244 14.9435 6.43486 14.943 5.92334 14.074C5.40036 13.1851 5.91493 12.1055 6.91943 11.9461L4.94971 10.784L5.13525 10.8025C4.93517 10.2062 5.61835 9.6739 6.12061 10.0906C6.44148 10.3574 6.38605 10.9118 6.02783 11.1219C6.31052 11.2872 6.59833 11.4422 6.87842 11.6121C7.20881 11.8124 7.38131 11.9218 7.73291 12.1004C8.23035 12.3531 8.23597 12.6266 8.46436 13.0496C8.57121 13.2471 8.77765 13.4569 8.90479 13.6541C9.56405 14.6766 10.0806 15.626 11.0278 16.4226C12.0108 17.2496 13.1761 17.8653 14.0552 18.8221C14.3175 17.5363 14.0774 16.1583 13.4028 15.0398C12.7357 13.9333 11.7062 13.2532 10.8579 12.3211C9.93136 11.3029 9.55914 10.485 8.15479 9.98807C7.65921 9.81254 7.19044 9.77905 6.70752 9.64627C6.64411 9.62891 6.60473 9.67251 6.62256 9.56619C7.95666 9.46501 9.15718 10.0074 10.0415 10.99L8.85303 6.6619L8.92627 6.64334C9.76339 8.29145 9.77933 10.2757 10.8296 11.826C11.5067 12.8252 12.5715 13.6216 13.5757 14.2664C13.6821 14.3347 14.6812 14.9745 14.7251 14.9246C14.6544 13.2292 14.1175 11.614 13.0513 10.2986C12.7581 9.93703 12.4011 9.64036 12.1128 9.27615L12.0122 9.22928C12.2164 9.259 12.4228 9.44028 12.5864 9.56815C13.127 9.99199 13.5988 10.5597 13.9604 11.1433C14.0724 11.3241 14.1618 11.5613 14.27 11.7293C14.2933 11.7656 14.2664 11.7957 14.353 11.7771C14.4248 11.2922 14.546 10.8161 14.6089 10.3289C14.6312 10.1565 14.7303 9.44346 14.6694 9.34158C14.6523 9.31308 14.4682 9.18787 14.4087 9.11697C12.8514 7.26937 15.9372 5.21099 17.0229 7.26834C17.75 8.64641 16.3603 10.1016 14.9487 9.52811C14.8978 11.1293 14.2947 12.9649 15.2642 14.3992C16.1258 12.9102 16.7793 11.2891 17.1606 9.60428C17.3377 8.82188 17.5881 7.76398 17.2905 6.99881C17.0621 6.41078 16.6453 6.36218 16.1948 6.00565C15.6267 5.55554 15.1973 4.86312 14.4907 4.62381C14.1942 5.06114 13.663 5.26635 13.1753 5.00272C12.5275 4.65276 12.5358 3.64553 13.2007 3.32596C13.9878 2.94775 14.763 3.63622 14.5396 4.46951L14.5386 4.47049C15.602 4.66275 16.0974 5.81885 17.0854 6.19315C17.0791 6.02374 16.9526 5.90062 16.8853 5.75858C16.5214 4.99384 16.1886 4.08016 16.0327 3.2449C16.019 3.17208 16.0784 3.17605 16.0991 3.19608ZM18.728 26.8875C20.3697 26.6244 20.3269 29.1003 18.7964 28.8982C17.6858 28.7516 17.6941 27.0533 18.728 26.8875ZM6.0835 15.4871C7.32111 16.4781 7.85882 17.8519 9.68994 17.7371C9.99867 17.7176 10.3123 17.6096 10.6177 17.5867C12.0404 17.4809 13.3126 18.1658 13.7397 19.5721C14.4961 22.0623 14.3596 26.2418 13.5083 28.7068C13.4514 28.8717 13.4397 28.928 13.2378 28.9021L13.2563 28.7527L13.4233 28.3025C13.6358 27.3445 13.8471 26.378 13.9438 25.3982C14.1139 23.6707 14.1418 20.0923 13.0513 18.6922C11.7547 17.0287 9.8893 18.3775 8.26904 17.6678C7.47371 17.319 6.64373 16.2929 6.12061 15.5994C6.09828 15.5698 6.0195 15.5272 6.0835 15.4871ZM10.5884 26.3631C12.2789 26.0942 12.5307 28.6101 10.9849 28.7849C9.34978 28.9691 9.13805 26.5944 10.5884 26.3631ZM21.4419 24.9012C23.7408 24.5411 23.8079 28.0154 21.6567 27.8894C19.8635 27.7844 19.8269 25.1544 21.4419 24.9012ZM7.28076 23.8533C9.59557 23.5739 9.85432 27.2632 7.64209 27.4402C5.4142 27.618 5.15556 24.1099 7.28076 23.8533ZM18.1733 22.9539C20.3717 22.8547 20.5474 26.3919 18.4204 26.5779C16.0751 26.7829 15.9477 23.0544 18.1733 22.9539ZM24.4897 23.8152C25.7455 23.6127 25.8984 25.4504 24.7358 25.5633C23.6507 25.6681 23.4313 23.9862 24.4897 23.8152ZM4.30713 24.3015C5.1065 24.1698 5.28332 25.3587 4.54932 25.4832C3.67564 25.631 3.59435 24.4193 4.30713 24.3015ZM10.7749 21.3797C13.0883 21.0428 12.8319 24.6139 10.7085 24.0877C9.27309 23.7317 9.40424 21.5796 10.7749 21.3797ZM26.0522 20.7439C28.3622 20.4462 28.3384 23.9302 26.1909 23.7674C24.3875 23.6301 24.3646 20.9619 26.0522 20.7439ZM3.37939 20.6678C5.31526 20.4034 5.43709 23.6015 3.3042 23.3094C1.90047 23.1165 1.8768 20.8733 3.37939 20.6678ZM22.6333 19.8064C24.914 19.5292 25.228 22.9484 23.1021 23.2019C20.7941 23.477 20.47 20.0695 22.6333 19.8064ZM19.6812 22.9676C18.9289 22.1881 20.2952 21.1076 20.8276 22.0555C21.264 22.8329 20.2593 23.5664 19.6812 22.9676ZM6.13037 20.5916C7.34514 20.4828 7.43633 22.3896 6.229 22.4207C5.10132 22.4495 4.97648 20.6952 6.13037 20.5916ZM16.4604 21.0799C17.4571 20.9111 17.4579 22.4344 16.4927 22.3035C15.8417 22.215 15.8123 21.19 16.4604 21.0799ZM8.58154 19.4685C9.81403 19.3178 10.0294 21.2158 8.82959 21.367C7.56315 21.526 7.36284 19.618 8.58154 19.4685ZM11.1099 19.5428C11.336 19.5069 11.5999 19.6083 11.7212 19.8074C12.1236 20.469 11.2564 21.059 10.7847 20.5642C10.467 20.2312 10.6586 19.6148 11.1099 19.5428ZM27.7603 18.9822C28.8642 18.8217 28.9724 20.4194 28.0073 20.5428C26.9819 20.6736 26.7752 19.1251 27.7603 18.9822ZM2.56104 14.1863C5.17138 13.932 6.7863 16.9627 5.07861 18.9724C3.39252 20.9566 0.160063 19.8261 0.00537109 17.2293C-0.0831718 15.7407 1.08822 14.3298 2.56104 14.1863ZM6.38818 18.3816C7.12142 18.2287 7.46274 19.1305 6.87939 19.5135C6.36261 19.8525 5.71433 19.2528 6.01904 18.6834C6.08051 18.5686 6.26099 18.4082 6.38818 18.3816ZM24.2671 16.9588C26.281 16.6655 26.4012 19.5776 24.5483 19.5945C22.8928 19.6096 22.8415 17.1665 24.2671 16.9588ZM26.8169 15.7254C27.6198 14.9392 28.9791 15.0967 29.561 16.0613C30.4227 17.4893 29.0978 19.1468 27.5181 18.6824C26.2771 18.3171 25.8999 16.624 26.8169 15.7254ZM28.9897 12.8728C29.9518 12.8237 30.0716 14.3292 29.0894 14.4012C28.0759 14.4754 28.0049 12.9231 28.9897 12.8728ZM0.961426 12.948C1.63002 12.8419 1.96557 13.7102 1.41455 14.0789C1.21478 14.2127 0.941552 14.2224 0.73584 14.0945C0.260458 13.799 0.408859 13.0361 0.961426 12.948ZM4.00928 12.3484C4.99706 12.1422 5.0531 13.6898 4.07861 13.573C3.41188 13.4931 3.40989 12.4737 4.00928 12.3484ZM18.9253 8.81717C18.6284 9.77805 18.0522 11.0445 17.2524 11.6834C17.0571 11.8394 16.9203 11.8625 16.6919 11.9431L16.3228 12.9012C16.35 12.9272 16.618 12.6917 16.6577 12.658C17.1751 12.2215 17.7272 11.704 18.2183 11.2342C18.8809 10.5999 19.5087 9.92225 20.1509 9.26736V9.26639C19.8269 9.29036 19.5614 9.24043 19.2847 9.07205C19.2259 9.03599 18.9532 8.79265 18.9253 8.81717ZM1.59424 10.5877C3.13217 10.3238 3.15075 12.6485 1.6626 12.449C0.644273 12.3121 0.684183 10.7441 1.59424 10.5877ZM2.96924 7.5535C4.53624 7.34086 5.04975 9.61914 3.58154 10.1189C1.76329 10.7374 1.14503 7.80143 2.96924 7.5535ZM7.65283 7.21561C8.96996 7.05919 9.18264 9.11232 7.89893 9.26248C6.53868 9.42152 6.31788 7.37427 7.65283 7.21561ZM22.7056 5.90408C24.1033 5.71805 24.6548 7.73615 23.3599 8.2869C21.596 9.03668 20.8733 6.14797 22.7056 5.90408ZM10.8862 6.16678C12.2655 5.9648 12.4438 7.99624 11.1704 8.13846C9.87527 8.28249 9.67778 6.34382 10.8862 6.16678ZM4.75342 5.37967C5.94336 5.23322 6.39622 6.9521 5.30811 7.40018C3.77411 8.03145 3.22649 5.56759 4.75342 5.37967ZM25.4829 4.866C26.7561 4.866 26.7062 6.79666 25.4829 6.79666C24.2601 6.79622 24.2144 4.86642 25.4829 4.866ZM18.2817 4.44217C19.5177 4.24267 19.8978 6.03364 18.7671 6.39334C17.3728 6.83638 16.9513 4.65708 18.2817 4.44217ZM6.5376 2.71854C8.62134 2.41099 8.59275 5.70977 6.54541 5.39041C5.05725 5.15787 5.11654 2.92878 6.5376 2.71854ZM21.8784 3.34549C22.8643 2.17607 24.5932 3.78792 23.52 4.86893C22.54 5.85541 20.9431 4.455 21.8784 3.34549ZM10.3667 0.733185C12.1211 0.509254 13.2496 2.47564 12.1216 3.85135C11.0694 5.13438 8.922 4.46336 8.78174 2.79764C8.70084 1.83566 9.39389 0.857698 10.3667 0.733185ZM19.9185 0.733185C21.8943 0.443639 21.8531 3.48764 19.9263 3.17947C18.5844 2.96457 18.6348 0.921794 19.9185 0.733185ZM16.3511 0.207794C18.4829 -0.0857104 18.5087 3.24392 16.313 2.92361C14.8818 2.71424 14.8634 0.412944 16.3511 0.207794ZM13.5249 0.0202942C15.0215 -0.234515 15.0656 2.05991 13.6313 1.91776C12.564 1.81187 12.536 0.188703 13.5249 0.0202942Z" fill="#B3B3B3"/>
<path fill-rule="evenodd" clip-rule="evenodd" d="M102.067 27.4839C101.733 27.9213 101.624 28.4077 101.685 28.9567L103.601 28.9552C108.04 24.1249 113.628 20.6249 119.158 17.1614C120.114 16.5629 121.068 15.9655 122.014 15.3624C123.069 14.3583 122.662 12.4749 121.047 13.3481L111.919 19.1441C112.399 18.2478 113.104 17.4898 113.808 16.7335C114.337 16.1654 114.864 15.5982 115.295 14.9741C115.806 14.2333 116.682 12.6772 115.159 12.6861C114.369 12.6916 112.885 13.9273 111.75 14.8721C111.345 15.2091 110.985 15.5091 110.716 15.7031C108.457 17.3365 106.016 18.8436 103.308 19.5933C103.095 19.3642 104.406 17.5924 104.636 17.2949C105.226 16.5342 105.924 15.862 106.62 15.1921C107.237 14.5978 107.852 14.0052 108.389 13.3541C108.435 13.2981 108.483 13.2411 108.532 13.1834C108.991 12.641 109.513 12.0248 108.831 11.4171C107.914 10.5988 106.872 11.7144 106.084 12.5581C105.875 12.7819 105.684 12.9865 105.517 13.1309C103.806 14.6171 101.971 16.0631 100.054 17.277C98.3873 18.3333 96.4372 19.5323 94.4708 19.7406C94.8249 19.0292 95.4626 18.2459 96.1248 17.4326C97.2019 16.1098 98.3438 14.7073 98.436 13.4047C98.4831 12.7471 98.1353 12.0524 97.4587 11.8977C95.9149 11.5453 94.1786 12.7013 92.6633 13.7102C92.0994 14.0856 91.5662 14.4407 91.0848 14.69C92.7196 8.26924 86.6538 12.0568 84.3823 14.0949C84.3465 13.9355 84.3367 13.7754 84.3274 13.6241C84.3005 13.1837 84.2782 12.8177 83.632 12.759C83.0244 12.7041 81.8746 13.6452 81.0099 14.353C80.704 14.6034 80.4337 14.8246 80.2358 14.9622C77.8153 16.6463 74.9645 18.5311 72.1638 19.449C72.0879 19.4739 72.0079 19.5006 71.9246 19.5285C70.8467 19.8887 69.2055 20.4373 68.4064 19.5963C70.644 18.8004 76.5285 15.2389 76.3516 12.5433C76.3103 11.9229 75.6809 11.3249 75.1355 11.0943C72.9788 10.1842 70.3449 12.2987 68.3296 13.9165C67.8379 14.3112 67.3831 14.6763 66.981 14.9608C66.1128 15.5752 59.5798 20.175 58.9828 19.5948C59.7963 17.8773 60.9436 16.2792 62.0637 14.7191C62.2243 14.4955 62.3842 14.2726 62.5426 14.0503C65.4745 9.93542 68.6261 5.947 72.0149 2.2085L72.6753 0.421817C72.4736 0.411638 72.3421 0.313554 72.2094 0.214535C72.0511 0.0964726 71.8911 -0.022919 71.6081 0.00378085C71.2425 0.0394848 70.6603 0.454541 70.3876 0.714882C68.118 2.88402 66.2628 5.40076 64.3954 7.934C61.9609 11.2366 59.5058 14.5672 56.0848 17.1922C55.3949 17.7219 52.1018 20.1051 51.4164 19.8805C50.7505 19.2989 51.5558 18.3438 52.0367 17.7735C52.07 17.734 52.1017 17.6964 52.1313 17.6609C53.0968 16.4975 54.9468 14.9012 56.3324 14.3211C56.9376 14.0677 57.456 13.9932 57.9714 13.9192C58.3034 13.8715 58.634 13.824 58.9857 13.729C60.106 13.4255 61.0376 11.3517 59.6328 11.133C56.9461 10.7153 54.0495 12.882 51.6201 14.6994C50.9346 15.2122 50.2862 15.6972 49.6903 16.0884C47.6974 17.3961 42.2949 20.6198 40.0087 19.9385C40.0022 19.9365 40.0153 19.9404 40.0087 19.9385C39.827 19.8845 39.5769 19.8102 39.5414 19.5948C41.6802 18.7588 46.692 15.8057 47.2758 13.5043C47.886 11.0988 45.7295 10.5543 43.8633 11.1003C40.7059 12.0241 36.1599 16.7608 36.4414 20.2687C36.5417 21.5288 37.8875 22.2979 39.0269 22.4154C42.1715 22.7393 45.1644 21.2219 47.9097 19.8301C48.1654 19.7005 48.4189 19.5719 48.6702 19.4461C48.3622 24.0043 51.8424 22.5538 54.366 21.1063C54.438 21.0647 54.617 20.9409 54.8393 20.7871C55.4045 20.396 56.2497 19.8112 56.328 19.8924C55.3595 22.8915 57.8787 22.771 59.9158 21.9513C61.1763 21.4444 62.4111 20.6411 63.6177 19.8561C64.2383 19.4523 64.8515 19.0534 65.4568 18.7022C64.4058 23.7603 70.3861 22.5702 73.2988 21.4886C74.4173 21.0727 75.4573 20.5033 76.4973 19.934C77.0829 19.6134 77.6684 19.2929 78.2679 18.9998C78.3172 19.0496 78.163 19.3249 77.9509 19.7034C77.4536 20.5907 76.6384 22.0454 77.3834 22.4928C78.2923 23.0382 79.6235 21.4774 80.5155 20.4316C80.7621 20.1424 80.9752 19.8926 81.1364 19.7376C82.7225 18.2128 84.6697 16.5674 86.4696 15.3104C86.7069 15.1437 88.632 13.851 88.7234 13.9462C88.6819 14.2827 88.4797 14.6365 88.306 14.9405C88.2885 14.9711 88.2714 15.0012 88.2546 15.0307C87.8818 15.6906 87.2579 16.5351 86.6095 17.413C85.6221 18.7496 84.5778 20.1634 84.2762 21.1197C83.943 22.1744 84.3248 22.5835 85.4038 22.408C85.9126 22.3256 86.1054 22.0376 86.308 21.7348C86.4089 21.5841 86.5122 21.4297 86.6582 21.2952C87.8891 20.1646 89.4118 18.8495 90.7178 17.8126C91.6582 17.0673 94.1081 15.1467 95.1341 14.8388C95.3242 14.7822 95.4245 14.87 95.3508 15.0575C95.163 15.5359 94.484 16.2888 93.8199 17.025C93.3319 17.5661 92.852 18.0981 92.581 18.5059C89.9557 22.4556 92.3466 23.256 95.9802 21.9364C97.1819 21.4996 98.2969 20.8605 99.4072 20.224C99.8699 19.9588 100.332 19.694 100.799 19.4446C99.8791 22.8112 102.767 22.8335 104.976 21.6523L108.606 19.5948L102.067 27.4839ZM44.5473 13.5014C42.6369 13.8108 40.9019 15.3297 39.8362 16.917C40.0337 17.0822 42.7578 15.3773 43.1219 15.108C43.1354 15.0981 43.1527 15.0854 43.1734 15.0703C43.5299 14.8104 44.8761 13.829 44.5473 13.5014ZM68.6998 16.917C70.5025 16.2134 72.2331 15.1452 73.5553 13.723C73.5877 13.0119 71.5241 14.2303 71.3604 14.33C70.2475 15.0084 69.4486 15.8608 68.6998 16.917Z" fill="#B3B3B3"/>
</svg>
