<svg width="155" height="16" viewBox="0 0 155 16" fill="none" xmlns="http://www.w3.org/2000/svg">
<path d="M109.007 3.86133C109.315 -1.32238 116.767 -1.1364 116.921 3.86133V5.50293H114.355V3.86133C114.355 2.98573 113.788 2.45806 113.033 2.45801C112.354 2.45826 111.62 3.06127 111.627 3.86133C111.657 7.01244 111.657 9.79011 111.627 12.3809C111.619 13.0968 112.128 13.6248 112.958 13.625C113.863 13.6248 114.355 13.0214 114.355 12.3809V10.332H114.358L114.288 10.0303C114.06 10.0302 112.887 10.0039 112.734 10.0039V7.84961H116.927V15.7715H115.643C115.558 15.6165 115.508 15.4353 115.471 15.248C113.339 16.8449 109.233 15.8475 109.066 12.751L109.007 3.86133ZM28.1934 3.8457C28.5013 -1.33842 35.9534 -1.15245 36.1074 3.8457V12.2002C36.0424 13.2347 35.7562 14.1558 35.0371 14.9004C33.0607 16.9491 28.4302 16.0268 28.2529 12.7344L28.1934 3.8457ZM78.7441 3.81934C79.0524 -1.36437 86.5039 -1.17839 86.6582 3.81934V5.46094H84.0928V3.81934C84.0926 2.94373 83.5249 2.41607 82.7705 2.41602C82.0916 2.41621 81.3568 3.01925 81.3643 3.81934C81.3942 6.97025 81.3942 9.74824 81.3643 12.3389C81.3562 13.0546 81.8657 13.5829 82.6953 13.583C83.6003 13.5828 84.0925 12.9792 84.0928 12.3389V10.29H84.0967L84.0264 9.98828C83.7992 9.98826 82.6257 9.96191 82.4727 9.96191V7.80762H86.665V15.7295H85.3809C85.2967 15.5746 85.2466 15.3933 85.209 15.2061C83.0772 16.8034 78.9711 15.8054 78.8037 12.709L78.7441 3.81934ZM59.8799 3.81836C60.1881 -1.36538 67.6396 -1.17938 67.7939 3.81836V12.1738C67.729 13.2082 67.4425 14.1285 66.7236 14.873C64.7472 16.9217 60.1179 16.0002 59.9404 12.708L59.8799 3.81836ZM71.8574 0.25293C71.8874 3.40412 71.8874 9.74707 71.8574 12.3379C71.8492 13.054 72.3584 13.582 73.1885 13.582C74.0939 13.582 74.5859 12.9785 74.5859 12.3379V0.25293H77.1514V12.1738C77.0864 13.2082 76.7999 14.1285 76.0811 14.873C74.1047 16.9216 69.4755 16.0001 69.2979 12.708L69.2373 0.25293H71.8574ZM137.286 3.81836C137.594 -1.36525 145.046 -1.17926 145.2 3.81836V5.45898H142.635V3.81836C142.635 2.94277 142.067 2.41408 141.312 2.41406C140.634 2.41421 139.899 3.01828 139.906 3.81836C139.936 6.96943 139.936 9.74716 139.906 12.3379C139.898 13.0539 140.407 13.5819 141.237 13.582C142.143 13.5819 142.635 12.9784 142.635 12.3379V10.2881H145.2V12.1738C145.135 13.2081 144.849 14.1285 144.13 14.873C142.154 16.9216 137.523 16.0001 137.346 12.708L137.286 3.81836ZM39.6904 0.314453C39.7651 0.323112 39.8288 0.319923 39.8662 0.40332L43.3027 10.2344L43.2764 0.37207H45.6865V15.7305L43.252 15.6768L39.9238 6.2998C39.7006 6.28093 39.8705 6.73349 39.874 6.86426C39.9115 8.09407 39.9145 9.35828 39.9258 10.583C39.9413 12.2691 39.916 13.9575 39.916 15.6436L39.8467 15.7178C39.6715 15.6393 39.5111 15.7271 39.3232 15.7344C38.8634 15.7525 38.1327 15.7838 37.6934 15.7344C37.6215 15.7265 37.5517 15.7326 37.5186 15.6465L37.5127 0.371094C38.2183 0.434175 38.9941 0.232378 39.6904 0.314453ZM154.816 0.342773L151.671 9.23438V15.7275C151.244 15.676 150.816 15.6651 150.385 15.6709C150.017 15.676 149.622 15.773 149.232 15.7295C148.952 15.6983 149.102 15.578 149.106 15.3789C149.142 13.6072 149.207 11.5195 149.106 9.76953C149.053 8.83674 148.448 7.63706 148.137 6.72461C147.406 4.58313 146.728 2.4218 145.908 0.314453H148.554L150.389 6.02637C150.477 6.04712 150.519 5.92692 150.545 5.86523C150.729 5.43743 150.818 4.76344 150.953 4.29199C151.33 2.98147 151.742 1.67917 152.115 0.367188L154.698 0.271484L154.816 0.342773ZM2.74121 0.316406C2.96429 0.323731 3.14423 0.418291 3.39062 0.320312L5.33203 10.0732L7.14062 0.37207L10.5723 0.319336V15.6514L10.4902 15.7266L8.16211 15.7324V4.36035L5.91406 15.6016L5.82422 15.7285L4.56934 15.6816L2.39746 4.19922V15.7324H0.0400391C0.0160222 10.6587 0.0725325 5.58126 0.0400391 0.506836L0.0185547 0.483398C0.00829359 0.474383 -0.000869347 0.463936 0 0.453125L0.0722656 0.378906C0.958064 0.320788 1.85188 0.288074 2.74121 0.316406ZM23.1621 0.37207L23.1318 13.415L27.1963 13.4141V15.7314H20.6201L20.624 0.324219L23.1621 0.37207ZM105.114 0.27832C105.192 0.29067 105.219 0.441453 105.239 0.506836C105.413 1.05968 105.532 1.86673 105.647 2.45801C106.234 5.45311 106.707 8.47787 107.248 11.4824C107.503 12.8976 107.821 14.3015 108.02 15.7275H105.584L104.957 12.2373L102.257 12.2793L101.706 15.7275H99.2686L102.048 0.317383L105.114 0.27832ZM127.339 0.265625C128.01 0.330267 128.827 0.172687 129.483 0.256836C129.541 0.264101 129.601 0.254156 129.639 0.314453L133.175 10.1768L133.096 0.259766H135.48V15.6465L135.397 15.7217L133.043 15.6738L129.638 6.2959L129.689 15.7275H127.306L127.259 0.345703L127.339 0.265625ZM125.501 2.63086H121.436L121.408 6.51172H124.658V8.93848H121.383V13.3555H125.501V15.7266H118.815V0.368164L125.501 0.366211V2.63086ZM50.5801 0.251953C51.5477 0.143725 53.3522 0.195298 54.3574 0.251953C57.683 0.440105 58.6011 2.36595 58.4189 5.56445C58.3533 6.71519 58.0181 7.61043 57.1592 8.36523C57.049 8.46253 56.637 8.67804 56.6426 8.78418L58.834 15.6406L58.7061 15.7227L56.1885 15.668L54.3809 9.3623H53.0195V15.6406L52.9434 15.708C52.1367 15.5685 51.3081 15.7629 50.5 15.6982L50.459 15.6338L50.4053 0.339844C50.4385 0.253596 50.5074 0.260651 50.5801 0.251953ZM18.8389 2.60938H14.7725L14.7451 6.49023H17.9961V8.91602H14.7207V13.334H18.8389V15.7051H12.1533V0.345703L18.8389 0.344727V2.60938ZM95.0898 2.5459H91.0234L90.9961 6.42676H94.2471V8.85352H90.9717V13.2705H95.0898V15.6416H88.4033V0.283203L95.0898 0.28125V2.5459ZM32.2197 2.44141C31.5406 2.44142 30.8059 3.04535 30.8135 3.8457C30.8434 6.99656 30.8434 9.77368 30.8135 12.3643C30.8052 13.0803 31.3145 13.6094 32.1445 13.6094C33.0499 13.6093 33.542 13.0048 33.542 12.3643V3.8457C33.542 2.96988 32.9743 2.44141 32.2197 2.44141ZM63.9062 2.41504C63.2273 2.41521 62.4926 3.01825 62.5 3.81836C62.5299 6.9695 62.5299 9.74711 62.5 12.3379C62.4917 13.054 63.001 13.582 63.8311 13.582C64.7365 13.582 65.2285 12.9785 65.2285 12.3379V3.81836C65.2284 2.94271 64.6607 2.41504 63.9062 2.41504ZM102.626 9.875L102.742 9.94922L104.667 9.96094L103.62 3.54785L102.626 9.875ZM53.0986 2.51758C53.0238 2.5648 53.0268 2.62564 53.0176 2.7041C52.8813 3.90127 53.0493 5.54288 53.0225 6.80469C53.0196 6.94126 52.9166 7.06589 53.0459 7.15234H54.6699C54.766 7.15234 55.2063 6.91337 55.2988 6.8291C56.0395 6.15256 56.0437 3.86029 55.4824 3.08496C55.325 2.86786 54.7597 2.51892 54.5137 2.51855H53.0986V2.51758Z" fill="#B3B3B3"/>
</svg>
