<svg width="155" height="32" viewBox="0 0 155 32" fill="none" xmlns="http://www.w3.org/2000/svg">
<path d="M109.007 11.8611C109.315 6.67744 116.767 6.86342 116.921 11.8611V13.5027H114.355V11.8611C114.355 10.9855 113.788 10.4579 113.033 10.4578C112.354 10.4581 111.62 11.0611 111.627 11.8611C111.657 15.0123 111.657 17.7899 111.627 20.3807C111.619 21.0966 112.128 21.6246 112.958 21.6248C113.863 21.6247 114.355 21.0212 114.355 20.3807V18.3318H114.358L114.288 18.0301C114.06 18.03 112.887 18.0037 112.734 18.0037V15.8494H116.927V23.7713H115.643C115.558 23.6163 115.508 23.4351 115.471 23.2479C113.339 24.8448 109.233 23.8474 109.066 20.7508L109.007 11.8611ZM28.1934 11.8455C28.5013 6.66139 35.9534 6.84737 36.1074 11.8455V20.2C36.0424 21.2345 35.7562 22.1556 35.0371 22.9002C33.0607 24.9489 28.4302 24.0266 28.2529 20.7342L28.1934 11.8455ZM78.7441 11.8192C79.0524 6.63545 86.5039 6.82143 86.6582 11.8192V13.4608H84.0928V11.8192C84.0926 10.9436 83.5249 10.4159 82.7705 10.4158C82.0916 10.416 81.3568 11.0191 81.3643 11.8192C81.3942 14.9701 81.3942 17.7481 81.3643 20.3387C81.3562 21.0544 81.8657 21.5827 82.6953 21.5828C83.6003 21.5827 84.0925 20.979 84.0928 20.3387V18.2899H84.0967L84.0264 17.9881C83.7992 17.9881 82.6257 17.9617 82.4727 17.9617V15.8074H86.665V23.7293H85.3809C85.2967 23.5744 85.2466 23.3931 85.209 23.2059C83.0772 24.8032 78.9711 23.8052 78.8037 20.7088L78.7441 11.8192ZM59.8799 11.8182C60.1881 6.63443 67.6396 6.82044 67.7939 11.8182V20.1736C67.729 21.208 67.4425 22.1283 66.7236 22.8729C64.7472 24.9215 60.1179 24 59.9404 20.7078L59.8799 11.8182ZM71.8574 8.25275C71.8874 11.4039 71.8874 17.7469 71.8574 20.3377C71.8491 21.0538 72.3584 21.5818 73.1885 21.5818C74.0939 21.5818 74.5859 20.9783 74.5859 20.3377V8.25275H77.1514V20.1736C77.0864 21.208 76.7999 22.1283 76.0811 22.8729C74.1047 24.9215 69.4755 23.9999 69.2979 20.7078L69.2373 8.25275H71.8574ZM137.286 11.8182C137.594 6.63457 145.046 6.82056 145.2 11.8182V13.4588H142.635V11.8182C142.635 10.9426 142.067 10.4139 141.312 10.4139C140.634 10.414 139.899 11.0181 139.906 11.8182C139.936 14.9693 139.936 17.747 139.906 20.3377C139.898 21.0537 140.407 21.5817 141.237 21.5818C142.143 21.5817 142.635 20.9782 142.635 20.3377V18.2879H145.2V20.1736C145.135 21.2079 144.849 22.1283 144.13 22.8729C142.154 24.9214 137.523 23.9999 137.346 20.7078L137.286 11.8182ZM39.6904 8.31427C39.7651 8.32293 39.8288 8.31974 39.8662 8.40314L43.3027 18.2342L43.2764 8.37189H45.6865V23.7303L43.252 23.6766L39.9238 14.2996C39.7006 14.2807 39.8705 14.7333 39.874 14.8641C39.9115 16.0939 39.9145 17.3581 39.9258 18.5828C39.9413 20.2689 39.916 21.9573 39.916 23.6434L39.8467 23.7176C39.6715 23.6391 39.5111 23.7269 39.3232 23.7342C38.8634 23.7524 38.1327 23.7836 37.6934 23.7342C37.6215 23.7263 37.5517 23.7324 37.5186 23.6463L37.5127 8.37091C38.2183 8.43399 38.9941 8.2322 39.6904 8.31427ZM154.816 8.34259L151.671 17.2342V23.7274C151.244 23.6758 150.816 23.6649 150.385 23.6707C150.017 23.6758 149.622 23.7728 149.232 23.7293C148.952 23.6981 149.102 23.5778 149.106 23.3787C149.142 21.607 149.207 19.5193 149.106 17.7693C149.053 16.8366 148.448 15.6369 148.137 14.7244C147.406 12.5829 146.728 10.4216 145.908 8.31427H148.554L150.389 14.0262C150.477 14.0469 150.519 13.9267 150.545 13.8651C150.729 13.4372 150.818 12.7633 150.953 12.2918C151.33 10.9813 151.742 9.67898 152.115 8.367L154.698 8.2713L154.816 8.34259ZM2.74121 8.31622C2.96429 8.32355 3.14423 8.41811 3.39062 8.32013L5.33203 18.0731L7.14062 8.37189L10.5723 8.31915V23.6512L10.4902 23.7264L8.16211 23.7322V12.3602L5.91406 23.6014L5.82422 23.7283L4.56934 23.6815L2.39746 12.199V23.7322H0.0400391C0.0160222 18.6585 0.0725325 13.5811 0.0400391 8.50665L0.0185547 8.48322C0.00829359 8.4742 -0.000869347 8.46375 0 8.45294L0.0722656 8.37872C0.958064 8.32061 1.85188 8.28789 2.74121 8.31622ZM23.1621 8.37189L23.1318 21.4149L27.1963 21.4139V23.7313H20.6201L20.624 8.32404L23.1621 8.37189ZM105.114 8.27814C105.192 8.29049 105.219 8.44127 105.239 8.50665C105.413 9.05949 105.532 9.86654 105.647 10.4578C106.234 13.4529 106.707 16.4777 107.248 19.4822C107.503 20.8974 107.821 22.3013 108.02 23.7274H105.584L104.957 20.2371L102.257 20.2791L101.706 23.7274H99.2686L102.048 8.3172L105.114 8.27814ZM127.339 8.26544C128.01 8.33008 128.827 8.1725 129.483 8.25665C129.541 8.26392 129.601 8.25397 129.639 8.31427L133.175 18.1766L133.096 8.25958H135.48V23.6463L135.397 23.7215L133.043 23.6736L129.638 14.2957L129.689 23.7274H127.306L127.259 8.34552L127.339 8.26544ZM125.501 10.6307H121.436L121.408 14.5115H124.658V16.9383H121.383V21.3553H125.501V23.7264H118.815V8.36798L125.501 8.36603V10.6307ZM50.5801 8.25177C51.5477 8.14354 53.3522 8.19512 54.3574 8.25177C57.683 8.43992 58.6011 10.3658 58.4189 13.5643C58.3533 14.715 58.0181 15.6102 57.1592 16.3651C57.049 16.4623 56.637 16.6779 56.6426 16.784L58.834 23.6404L58.7061 23.7225L56.1885 23.6678L54.3809 17.3621H53.0195V23.6404L52.9434 23.7078C52.1367 23.5683 51.3081 23.7627 50.5 23.6981L50.459 23.6336L50.4053 8.33966C50.4385 8.25341 50.5074 8.26047 50.5801 8.25177ZM18.8389 10.6092H14.7725L14.7451 14.4901H17.9961V16.9158H14.7207V21.3338H18.8389V23.7049H12.1533V8.34552L18.8389 8.34454V10.6092ZM95.0898 10.5457H91.0234L90.9961 14.4266H94.2471V16.8533H90.9717V21.2703H95.0898V23.6414H88.4033V8.28302L95.0898 8.28107V10.5457ZM32.2197 10.4412C31.5406 10.4412 30.8059 11.0452 30.8135 11.8455C30.8434 14.9964 30.8434 17.7735 30.8135 20.3641C30.8052 21.0801 31.3145 21.6092 32.1445 21.6092C33.0499 21.6091 33.542 21.0046 33.542 20.3641V11.8455C33.542 10.9697 32.9743 10.4412 32.2197 10.4412ZM63.9062 10.4149C63.2273 10.415 62.4926 11.0181 62.5 11.8182C62.5299 14.9693 62.5299 17.7469 62.5 20.3377C62.4917 21.0538 63.001 21.5818 63.8311 21.5818C64.7365 21.5818 65.2285 20.9783 65.2285 20.3377V11.8182C65.2284 10.9425 64.6607 10.4149 63.9062 10.4149ZM102.626 17.8748L102.742 17.949L104.667 17.9608L103.62 11.5477L102.626 17.8748ZM53.0986 10.5174C53.0238 10.5646 53.0268 10.6255 53.0176 10.7039C52.8813 11.9011 53.0493 13.5427 53.0225 14.8045C53.0196 14.9411 52.9166 15.0657 53.0459 15.1522H54.6699C54.766 15.1522 55.2063 14.9132 55.2988 14.8289C56.0395 14.1524 56.0437 11.8601 55.4824 11.0848C55.325 10.8677 54.7597 10.5187 54.5137 10.5184H53.0986V10.5174Z" fill="#B3B3B3"/>
</svg>
