<svg width="78" height="32" viewBox="0 0 78 32" fill="none" xmlns="http://www.w3.org/2000/svg">
<path d="M0.432166 3.56891V14.0192L7.95899 18.4899L0 23.2106L8.8053 28.4311L17.1874 23.4605V13.5193L0.432166 3.56891Z" fill="white"/>
<path d="M0.873779 23.2013L8.80576 27.9035V18.4899L0.873779 23.2013Z" fill="#B3B3B3"/>
<path d="M0.873779 4.37421V13.7785L8.80576 9.07635L0.873779 4.37421Z" fill="#EDEDED"/>
<path d="M8.80576 9.07635L0.873779 13.7785L8.80576 18.4899V9.07635Z" fill="#E0E0E0"/>
<path d="M16.7376 23.2013V13.7878L8.80566 18.4899L16.7376 23.2013Z" fill="#CCCCCC"/>
<path d="M8.80566 18.4899L16.7376 13.7785L8.80566 9.07635V18.4899Z" fill="#D3D3D3"/>
<path d="M16.7376 23.2013L8.80566 18.4899V27.9035L16.7376 23.2013Z" fill="#C1C1C1"/>
<path d="M47.5434 16.5415C47.5434 15.8102 47.2643 15.3937 46.8502 15.116C46.517 14.8939 46.0579 14.7643 45.5357 14.7643C44.4012 14.7643 43.5099 15.477 43.5099 16.4026V23.3355H40.8899V16.5507C40.8899 15.8195 40.6108 15.403 40.1967 15.1253C39.8545 14.9031 39.4044 14.7735 38.8822 14.7735C37.7477 14.7735 36.8564 15.4863 36.8564 16.4119V23.3448H34.1914V14.1626C34.1914 13.7739 34.2904 13.4499 34.5695 13.1629C35.2628 12.4872 36.3792 12.3669 36.8564 12.3021V13.6535C37.3696 12.8575 38.522 12.3484 39.6024 12.3484C41.034 12.3484 42.2494 12.9593 42.9607 13.9034C43.654 12.9593 44.8694 12.3484 46.2829 12.3484C48.4888 12.3484 50.2354 13.7553 50.2354 15.5788V23.3448H47.5524V16.5415H47.5434Z" fill="#B3B3B3"/>
<path d="M69.2146 12.4595C67.567 12.4595 66.2885 13.3111 65.5232 14.8198V12.3206C65.2261 12.3947 63.9926 12.7835 63.3174 13.5054C63.0293 13.8109 62.8762 14.1626 62.8762 14.4496V23.3263H65.5142V19.1425C65.5142 16.7173 66.7477 15.2178 68.8995 15.0327C69.1966 15.0142 69.5117 14.9494 69.5117 14.4773V12.4688H69.2146V12.4595Z" fill="#B3B3B3"/>
<path d="M73.4284 19.9292V14.8939H75.7513L77.0748 12.4595H73.4284V8.41452L71.9699 9.15502C71.1416 9.57154 70.6914 10.2935 70.6914 11.0063V20.4846C70.6914 21.799 71.2046 23.5854 73.6175 23.5854C75.022 23.5854 75.9854 23.0486 75.9854 22.7246V20.8641C74.4728 21.5306 73.4284 21.3177 73.4284 19.9292Z" fill="#B3B3B3"/>
<path d="M21.5508 21.4472L22.8473 19.3924C24.4139 20.5309 26.1335 21.1418 27.7271 21.1418C29.1856 21.1418 30.023 20.4198 30.023 19.3368C30.023 16.7081 22.172 17.7263 22.172 12.7094C22.172 10.0529 24.3598 8.41452 27.2949 8.41452C29.1046 8.41452 31.0944 9.02542 32.6069 10.0529L31.7696 11.5524C31.5265 11.9967 31.1484 12.0522 30.7162 11.8301C29.5818 11.1914 28.3123 10.8304 27.2409 10.8304C25.8094 10.8304 25.0891 11.5801 25.0891 12.4965C25.0891 15.0512 32.9581 14.1626 32.9581 19.0962C32.9581 22.0119 30.6892 23.5854 27.6461 23.5854C25.4853 23.5762 23.2524 22.7987 21.5508 21.4472Z" fill="#B3B3B3"/>
<path d="M60.8597 17.0043C60.8597 15.5233 60.5986 14.32 59.8513 13.5424C58.8519 12.515 57.7175 12.3391 56.277 12.3391C54.7914 12.3391 53.4139 12.9593 53.1528 13.1537C52.9367 13.3203 52.7837 13.5517 52.7927 13.8572V15.3196C53.774 14.9772 55.0525 14.7735 55.8358 14.7735C56.6371 14.7735 57.3123 14.8661 57.7535 15.2363C58.2667 15.6714 58.3207 16.3841 58.3297 16.7266C58.3297 16.8469 58.3207 16.9302 58.3207 16.9302L58.3117 16.9765L58.2757 16.9672C58.2757 16.9672 57.0963 16.8377 55.8538 16.8377C54.6203 16.8377 53.5309 17.0783 52.7837 17.6707C52.1354 18.1983 51.6222 19.198 51.6312 20.2532C51.6312 21.4565 52.1444 22.2988 52.7386 22.7986C53.3599 23.317 54.5123 23.5669 55.4847 23.5577C56.5201 23.5577 57.2223 23.3818 57.6545 23.2059C58.0956 23.0301 58.2757 22.8542 58.2757 22.8542L58.3477 22.7894V23.3448H60.8867L60.8597 17.0043ZM58.3207 19.6793C58.3207 20.2717 58.0866 21.0585 57.2673 21.4287C56.8622 21.6046 56.448 21.6972 56.0429 21.7064C55.6377 21.7064 55.2416 21.6046 54.9084 21.3917C54.4673 21.1233 54.3052 20.6327 54.2962 20.1884C54.2962 19.8829 54.3772 19.596 54.5033 19.3924C54.8094 18.9018 55.4036 18.5963 56.385 18.5778H56.6011C57.7085 18.5686 58.3117 18.7907 58.3117 18.7907V19.6793H58.3207Z" fill="#B3B3B3"/>
</svg>
