<svg width="78" height="25" viewBox="0 0 78 25" fill="none" xmlns="http://www.w3.org/2000/svg">
<path d="M0.432166 0V10.4503L7.95899 14.921L0 19.6417L8.8053 24.8622L17.1874 19.8916V9.95041L0.432166 0Z" fill="white"/>
<path d="M0.873779 19.6324L8.80576 24.3345V14.921L0.873779 19.6324Z" fill="#B3B3B3"/>
<path d="M0.873779 0.805298V10.2096L8.80576 5.50745L0.873779 0.805298Z" fill="#EDEDED"/>
<path d="M8.80576 5.50745L0.873779 10.2096L8.80576 14.921V5.50745Z" fill="#E0E0E0"/>
<path d="M16.7376 19.6324V10.2188L8.80566 14.921L16.7376 19.6324Z" fill="#CCCCCC"/>
<path d="M8.80566 14.921L16.7376 10.2096L8.80566 5.50745V14.921Z" fill="#D3D3D3"/>
<path d="M16.7376 19.6324L8.80566 14.921V24.3345L16.7376 19.6324Z" fill="#C1C1C1"/>
<path d="M47.5434 12.9726C47.5434 12.2413 47.2643 11.8248 46.8502 11.5471C46.517 11.3249 46.0579 11.1954 45.5357 11.1954C44.4012 11.1954 43.5099 11.9081 43.5099 12.8337V19.7666H40.8899V12.9818C40.8899 12.2506 40.6108 11.834 40.1967 11.5564C39.8545 11.3342 39.4044 11.2046 38.8822 11.2046C37.7477 11.2046 36.8564 11.9173 36.8564 12.843V19.7759H34.1914V10.5937C34.1914 10.2049 34.2904 9.88098 34.5695 9.59404C35.2628 8.91834 36.3792 8.79801 36.8564 8.73322V10.0846C37.3696 9.28858 38.522 8.7795 39.6024 8.7795C41.034 8.7795 42.2494 9.3904 42.9607 10.3345C43.654 9.3904 44.8694 8.7795 46.2829 8.7795C48.4888 8.7795 50.2354 10.1864 50.2354 12.0099V19.7759H47.5524V12.9726H47.5434Z" fill="#B3B3B3"/>
<path d="M69.2146 8.89058C67.567 8.89058 66.2885 9.74215 65.5232 11.2509V8.75174C65.2261 8.82579 63.9926 9.21455 63.3174 9.93654C63.0293 10.242 62.8762 10.5937 62.8762 10.8807V19.7574H65.5142V15.5736C65.5142 13.1484 66.7477 11.6489 68.8995 11.4638C69.1966 11.4453 69.5117 11.3805 69.5117 10.9084V8.89984H69.2146V8.89058Z" fill="#B3B3B3"/>
<path d="M73.4284 16.3603V11.3249H75.7513L77.0748 8.89057H73.4284V4.84561L71.9699 5.58611C71.1416 6.00264 70.6914 6.72462 70.6914 7.43735V16.9157C70.6914 18.2301 71.2046 20.0165 73.6175 20.0165C75.022 20.0165 75.9854 19.4797 75.9854 19.1557V17.2952C74.4728 17.9616 73.4284 17.7487 73.4284 16.3603Z" fill="#B3B3B3"/>
<path d="M21.5508 17.8783L22.8473 15.8235C24.4139 16.962 26.1335 17.5729 27.7271 17.5729C29.1856 17.5729 30.023 16.8509 30.023 15.7679C30.023 13.1392 22.172 14.1573 22.172 9.14048C22.172 6.48396 24.3598 4.84561 27.2949 4.84561C29.1046 4.84561 31.0944 5.45652 32.6069 6.48395L31.7696 7.98346C31.5265 8.42776 31.1484 8.48329 30.7162 8.26115C29.5818 7.62247 28.3123 7.26148 27.2409 7.26148C25.8094 7.26148 25.0891 8.01123 25.0891 8.92759C25.0891 11.4823 32.9581 10.5937 32.9581 15.5273C32.9581 18.443 30.6892 20.0165 27.6461 20.0165C25.4853 20.0073 23.2524 19.2297 21.5508 17.8783Z" fill="#B3B3B3"/>
<path d="M60.8597 13.4354C60.8597 11.9544 60.5986 10.7511 59.8513 9.97354C58.8519 8.9461 57.7175 8.77023 56.277 8.77023C54.7914 8.77023 53.4139 9.3904 53.1528 9.58478C52.9367 9.75139 52.7837 9.9828 52.7927 10.2883V11.7507C53.774 11.4083 55.0525 11.2046 55.8358 11.2046C56.6371 11.2046 57.3123 11.2972 57.7535 11.6674C58.2667 12.1025 58.3207 12.8152 58.3297 13.1577C58.3297 13.278 58.3207 13.3613 58.3207 13.3613L58.3117 13.4076L58.2757 13.3983C58.2757 13.3983 57.0963 13.2687 55.8538 13.2687C54.6203 13.2687 53.5309 13.5094 52.7837 14.1018C52.1354 14.6294 51.6222 15.6291 51.6312 16.6843C51.6312 17.8876 52.1444 18.7299 52.7386 19.2297C53.3599 19.7481 54.5123 19.998 55.4847 19.9887C56.5201 19.9887 57.2223 19.8129 57.6545 19.637C58.0956 19.4611 58.2757 19.2853 58.2757 19.2853L58.3477 19.2205V19.7759H60.8867L60.8597 13.4354ZM58.3207 16.1104C58.3207 16.7028 58.0866 17.4896 57.2673 17.8598C56.8622 18.0357 56.448 18.1283 56.0429 18.1375C55.6377 18.1375 55.2416 18.0357 54.9084 17.8228C54.4673 17.5544 54.3052 17.0638 54.2962 16.6195C54.2962 16.314 54.3772 16.0271 54.5033 15.8235C54.8094 15.3329 55.4036 15.0274 56.385 15.0089H56.6011C57.7085 14.9997 58.3117 15.2218 58.3117 15.2218V16.1104H58.3207Z" fill="#B3B3B3"/>
</svg>
