<svg width="44" height="44" viewBox="0 0 44 44" fill="none" xmlns="http://www.w3.org/2000/svg">
<path d="M37.5579 6.44392C41.7191 10.6054 41.8492 17.2714 37.9481 21.5894L37.5579 22.0003L37.9474 22.4104C41.849 26.7285 41.7195 33.395 37.5579 37.5566C33.2623 41.8523 26.2974 41.8521 22.0016 37.5566C22.0008 37.5558 22.0003 37.554 21.9995 37.5532L21.9981 37.5559C17.7024 41.8517 10.7375 41.8517 6.44178 37.5559C2.14636 33.2601 2.14613 26.2952 6.44178 21.9996C2.14636 17.7038 2.14613 10.7389 6.44178 6.44323C10.7374 2.1476 17.7023 2.14781 21.9981 6.44323L22.0002 6.4453L22.0016 6.44392C26.2974 2.14815 33.2622 2.14815 37.5579 6.44392ZM21.9981 21.9996L22.0002 22.0016L22.0016 22.0003L21.9995 21.9968L21.9981 21.9996Z" fill="#E89303"/>
<path d="M22 0C28.0751 0 33 4.92487 33 11C39.0751 11 44 15.9249 44 22C44 28.0751 39.0751 33 33 33C33 39.0751 28.0751 44 22 44C15.9249 44 11 39.0751 11 33C4.92487 33 0 28.0751 0 22C0 15.9249 4.92487 11 11 11C11 4.92487 15.9249 0 22 0Z" fill="#FFB112"/>
<path d="M32.9997 11.0007C35.9424 13.9434 36.0342 18.6569 33.2752 21.7102L32.9997 22.0009L33.2759 22.2909C36.0343 25.3442 35.9427 30.0578 33.0004 33.0004C29.9629 36.0379 25.0378 36.0378 22.0002 33.0004L21.7095 33.2759C18.6562 36.0347 13.9427 35.943 11 33.0004C7.96243 29.9629 7.96243 25.0378 11 22.0002C7.96247 18.9626 7.96244 14.0376 11 11C14.0376 7.9627 18.962 7.96325 21.9995 11.0007L22.2895 10.7245C25.3429 7.9655 30.057 8.05796 32.9997 11.0007Z" fill="#FFC85F"/>
<path d="M22.0005 11.0005C24.943 11.0007 27.3455 13.3113 27.4927 16.2173L27.5005 16.5005L27.7827 16.5073C30.6889 16.6544 33.0005 19.0577 33.0005 22.0005C33.0003 25.0377 30.5377 27.5003 27.5005 27.5005L27.4927 27.7827C27.3456 30.6888 24.9431 33.0003 22.0005 33.0005C19.0577 33.0005 16.6544 30.6889 16.5073 27.7827L16.5005 27.5005L16.2173 27.4927C13.3113 27.3455 11.0007 24.943 11.0005 22.0005C11.0005 18.9629 13.4629 16.5005 16.5005 16.5005L16.5073 16.2173C16.6545 13.3112 19.0578 11.0005 22.0005 11.0005Z" fill="#FFD993"/>
<circle cx="22" cy="21.7104" r="5.5" fill="#F6F4EE"/>
</svg>
