<svg width="20" height="20" viewBox="0 0 20 20" fill="none" xmlns="http://www.w3.org/2000/svg">
<path d="M17.0718 2.92942C18.9631 4.82103 19.0225 7.85068 17.2492 9.81336L17.0718 10.0005L17.2492 10.1862C19.0227 12.149 18.9634 15.1799 17.0718 17.0716C15.1192 19.0238 11.9532 19.0238 10.0007 17.0716L10 17.0695V17.0709C8.04745 19.0234 4.88157 19.0233 2.92893 17.0709C1.03734 15.1793 0.977424 12.149 2.75077 10.1862L2.92893 9.9998L2.75077 9.81336C0.977529 7.85059 1.03738 4.82029 2.92893 2.92873C4.88158 0.976435 8.04749 0.97622 10 2.92873L10.0007 2.92942L10.1871 2.75127C12.1499 0.977914 15.1802 1.03783 17.0718 2.92942Z" fill="#0064C9"/>
<path d="M10 0C12.7614 0 15 2.23858 15 5C17.7614 5 20 7.23858 20 10C20 12.7614 17.7614 15 15 15C15 17.7614 12.7614 20 10 20C7.23858 20 5 17.7614 5 15C2.23858 15 0 12.7614 0 10C0 7.23858 2.23858 5 5 5C5 2.23858 7.23858 0 10 0Z" fill="#1279FF"/>
<path d="M15.0002 5.0004C16.3807 6.38104 16.3806 8.61917 15.0002 9.99987C16.3809 11.3806 16.3809 13.62 15.0002 15.0007C13.6194 16.3812 11.3806 16.3807 10 15C8.61932 16.3807 6.38125 16.3806 5.00053 15C3.61982 13.6193 3.61913 11.3806 4.99984 9.99987C3.61953 8.61919 3.61944 6.38102 4.99984 5.0004C6.38045 3.6198 8.61926 3.61933 10 4.99971C11.3807 3.61922 13.6195 3.61976 15.0002 5.0004Z" fill="#5F9CFF"/>
<path d="M10 5C11.3807 5 12.5 6.11929 12.5 7.5C13.8807 7.5 15 8.61929 15 10C15 11.3807 13.8807 12.5 12.5 12.5C12.5 13.8807 11.3807 15 10 15C8.61929 15 7.5 13.8807 7.5 12.5C6.11929 12.5 5 11.3807 5 10C5 8.61929 6.11929 7.5 7.5 7.5C7.5 6.11929 8.61929 5 10 5Z" fill="#93D4FF"/>
<circle cx="10" cy="9.86841" r="2.5" fill="#F6F4EE"/>
</svg>
