<svg width="15" height="15" viewBox="0 0 15 15" fill="none" xmlns="http://www.w3.org/2000/svg">
<path fill-rule="evenodd" clip-rule="evenodd" d="M12.7063 11.0613H14.0619C14.5825 11.0613 14.9991 10.6517 15 10.1409C15 9.6302 14.5825 9.2206 14.0619 9.2206H11.6213C11.5272 9.06065 11.435 8.90378 11.3445 8.74998C11.2763 8.63408 11.2092 8.51992 11.1431 8.4075C10.1512 6.72127 9.39011 5.4278 8.85688 4.53036C8.30279 4.98295 7.74096 6.31796 8.527 7.64791C8.83383 8.17075 9.20319 8.7982 9.63452 9.53072C9.69592 9.63498 9.75927 9.74256 9.82317 9.85109C9.89932 9.9804 9.97737 10.1129 10.0571 10.2483C10.6153 11.1963 11.2607 12.2928 11.9924 13.5383C12.2553 13.9808 12.8249 14.13 13.2759 13.8771C13.7269 13.6192 13.8789 13.0604 13.6212 12.618L12.7063 11.0613Z" fill="#D0D6E0"/>
<path fill-rule="evenodd" clip-rule="evenodd" d="M0.938091 11.0562H9.46681C9.87658 10.3028 9.34826 9.21554 8.40673 9.2147H5.49711L9.51921 2.38373C9.77693 1.94209 9.62488 1.37825 9.17387 1.12541C8.72287 0.872568 8.14816 1.02175 7.89044 1.46422L7.47294 2.17218L7.06317 1.46169C6.8003 1.01922 6.23074 0.87004 5.77974 1.12288C5.32873 1.38078 5.17668 1.93956 5.4344 2.38204L6.39053 4.01035L3.32885 9.21554H0.938091C0.417502 9.21554 0 9.62514 0 10.1359C0 10.6466 0.417502 11.0562 0.938091 11.0562Z" fill="#D0D6E0"/>
<path fill-rule="evenodd" clip-rule="evenodd" d="M1.66915 13.8771C2.12015 14.13 2.69486 13.9808 2.95258 13.5383L3.85459 12.0036C3.36665 11.4271 2.75156 11.2501 1.99387 11.4802L1.32381 12.618C1.06609 13.0604 1.21814 13.6243 1.66915 13.8771Z" fill="#D0D6E0"/>
</svg>
