<svg width="80" height="80" viewBox="0 0 80 80" fill="none" xmlns="http://www.w3.org/2000/svg">
<rect width="80" height="80" rx="7.44186" fill="black"/>
<rect x="26.6045" y="5.76746" width="2.97674" height="2.97674" rx="1.48837" fill="white"/>
<rect x="32.5581" y="5.76746" width="2.97674" height="2.97674" rx="1.48837" fill="white"/>
<rect x="32.5581" y="2.79071" width="2.97674" height="2.97674" rx="1.48837" fill="white"/>
<rect x="29.5811" y="2.79071" width="2.97674" height="2.97674" rx="1.48837" fill="white"/>
<rect x="44.4648" y="2.79071" width="2.97674" height="2.97674" rx="1.48837" fill="white"/>
<rect x="29.5811" y="8.7442" width="2.97674" height="2.97674" rx="1.48837" fill="white"/>
<rect x="29.5811" y="11.7209" width="2.97674" height="2.97674" rx="1.48837" fill="white"/>
<rect x="26.6045" y="11.7209" width="2.97674" height="2.97674" rx="1.48837" fill="white"/>
<rect x="32.5581" y="11.7209" width="2.97674" height="2.97674" rx="1.48837" fill="white"/>
<rect x="32.5581" y="14.6977" width="2.97674" height="2.97674" rx="1.48837" fill="white"/>
<rect x="35.5347" y="14.6977" width="2.97674" height="2.97674" rx="1.48837" fill="white"/>
<rect x="35.5347" y="17.6744" width="2.97674" height="2.97674" rx="1.48837" fill="white"/>
<rect x="38.5112" y="17.6744" width="2.97674" height="2.97674" rx="1.48837" fill="white"/>
<rect x="38.5112" y="20.6512" width="2.97674" height="2.97674" rx="1.48837" fill="white"/>
<rect x="41.4883" y="17.6744" width="2.97674" height="2.97674" rx="1.48837" fill="white"/>
<rect x="44.4648" y="17.6744" width="2.97674" height="2.97674" rx="1.48837" fill="white"/>
<rect x="44.4648" y="20.6512" width="2.97674" height="2.97674" rx="1.48837" fill="white"/>
<rect x="50.4185" y="20.6512" width="2.97674" height="2.97674" rx="1.48837" fill="white"/>
<rect x="50.4185" y="23.6279" width="2.97674" height="2.97674" rx="1.48837" fill="white"/>
<rect x="47.4419" y="17.6744" width="2.97674" height="2.97674" rx="1.48837" fill="white"/>
<rect x="47.4419" y="14.6977" width="2.97674" height="2.97674" rx="1.48837" fill="white"/>
<rect x="29.5811" y="14.6977" width="2.97674" height="2.97674" rx="1.48837" fill="white"/>
<rect x="29.5811" y="17.6744" width="2.97674" height="2.97674" rx="1.48837" fill="white"/>
<rect x="32.5581" y="20.6512" width="2.97674" height="2.97674" rx="1.48837" fill="white"/>
<rect x="35.5347" y="23.6279" width="2.97674" height="2.97674" rx="1.48837" fill="white"/>
<rect x="29.5811" y="23.6279" width="2.97674" height="2.97674" rx="1.48837" fill="white"/>
<rect x="29.5811" y="26.6047" width="2.97674" height="2.97674" rx="1.48837" fill="white"/>
<rect x="26.6045" y="26.6047" width="2.97674" height="2.97674" rx="1.48837" fill="white"/>
<rect x="23.6279" y="26.6047" width="2.97674" height="2.97674" rx="1.48837" fill="white"/>
<rect x="20.6509" y="26.6047" width="2.97674" height="2.97674" rx="1.48837" fill="white"/>
<rect x="14.6973" y="26.6047" width="2.97674" height="2.97674" rx="1.48837" fill="white"/>
<rect x="11.7207" y="26.6047" width="2.97674" height="2.97674" rx="1.48837" fill="white"/>
<rect x="8.74414" y="26.6047" width="2.97674" height="2.97674" rx="1.48837" fill="white"/>
<rect x="5.76709" y="26.6047" width="2.97674" height="2.97674" rx="1.48837" fill="white"/>
<rect x="2.79053" y="26.6047" width="2.97674" height="2.97674" rx="1.48837" fill="white"/>
<rect x="2.79053" y="29.5814" width="2.97674" height="2.97674" rx="1.48837" fill="white"/>
<rect x="2.79053" y="32.5582" width="2.97674" height="2.97674" rx="1.48837" fill="white"/>
<rect x="5.76709" y="32.5582" width="2.97674" height="2.97674" rx="1.48837" fill="white"/>
<rect x="8.74414" y="32.5582" width="2.97674" height="2.97674" rx="1.48837" fill="white"/>
<rect x="11.7207" y="29.5814" width="2.97674" height="2.97674" rx="1.48837" fill="white"/>
<rect x="14.6973" y="29.5814" width="2.97674" height="2.97674" rx="1.48837" fill="white"/>
<rect x="23.6279" y="29.5814" width="2.97674" height="2.97674" rx="1.48837" fill="white"/>
<rect x="38.5112" y="26.6047" width="2.97674" height="2.97674" rx="1.48837" fill="white"/>
<rect x="41.4883" y="26.6047" width="2.97674" height="2.97674" rx="1.48837" fill="white"/>
<rect x="44.4648" y="26.6047" width="2.97674" height="2.97674" rx="1.48837" fill="white"/>
<rect x="44.4648" y="29.5814" width="2.97674" height="2.97674" rx="1.48837" fill="white"/>
<rect x="38.5112" y="29.5814" width="2.97674" height="2.97674" rx="1.48837" fill="white"/>
<rect x="47.4419" y="26.6047" width="2.97674" height="2.97674" rx="1.48837" fill="white"/>
<rect x="50.4185" y="29.5814" width="2.97674" height="2.97674" rx="1.48837" fill="white"/>
<rect x="50.4185" y="35.5349" width="2.97674" height="2.97674" rx="1.48837" fill="white"/>
<rect x="53.395" y="29.5814" width="2.97674" height="2.97674" rx="1.48837" fill="white"/>
<rect x="59.3486" y="29.5814" width="2.97674" height="2.97674" rx="1.48837" fill="white"/>
<rect x="62.3252" y="32.5582" width="2.97674" height="2.97674" rx="1.48837" fill="white"/>
<rect x="62.3252" y="29.5814" width="2.97674" height="2.97674" rx="1.48837" fill="white"/>
<rect x="53.395" y="35.5349" width="2.97674" height="2.97674" rx="1.48837" fill="white"/>
<rect x="53.395" y="26.6047" width="2.97674" height="2.97674" rx="1.48837" fill="white"/>
<rect x="59.3486" y="26.6047" width="2.97674" height="2.97674" rx="1.48837" fill="white"/>
<rect x="65.3022" y="26.6047" width="2.97674" height="2.97674" rx="1.48837" fill="white"/>
<rect x="68.2788" y="32.5582" width="2.97674" height="2.97674" rx="1.48837" fill="white"/>
<rect x="71.2559" y="26.6047" width="2.97674" height="2.97674" rx="1.48837" fill="white"/>
<rect x="74.2324" y="29.5814" width="2.97674" height="2.97674" rx="1.48837" fill="white"/>
<rect x="53.395" y="32.5582" width="2.97674" height="2.97674" rx="1.48837" fill="white"/>
<rect x="56.3721" y="32.5582" width="2.97674" height="2.97674" rx="1.48837" fill="white"/>
<rect x="17.6743" y="29.5814" width="2.97674" height="2.97674" rx="1.48837" fill="white"/>
<rect x="14.6973" y="32.5582" width="2.97674" height="2.97674" rx="1.48837" fill="white"/>
<rect x="20.6509" y="32.5582" width="2.97674" height="2.97674" rx="1.48837" fill="white"/>
<rect x="26.6045" y="32.5582" width="2.97674" height="2.97674" rx="1.48837" fill="white"/>
<rect x="2.79053" y="35.5349" width="2.97674" height="2.97674" rx="1.48837" fill="white"/>
<rect x="2.79053" y="38.5117" width="2.97674" height="2.97674" rx="1.48837" fill="white"/>
<rect x="5.76709" y="38.5117" width="2.97674" height="2.97674" rx="1.48837" fill="white"/>
<rect x="8.74414" y="38.5117" width="2.97674" height="2.97674" rx="1.48837" fill="white"/>
<rect x="8.74414" y="41.4884" width="2.97674" height="2.97674" rx="1.48837" fill="white"/>
<rect x="8.74414" y="44.4651" width="2.97674" height="2.97674" rx="1.48837" fill="white"/>
<rect x="8.74414" y="47.4419" width="2.97674" height="2.97674" rx="1.48837" fill="white"/>
<rect x="8.74414" y="50.4186" width="2.97674" height="2.97674" rx="1.48837" fill="white"/>
<rect x="11.7207" y="50.4186" width="2.97674" height="2.97674" rx="1.48837" fill="white"/>
<rect x="14.6973" y="50.4186" width="2.97674" height="2.97674" rx="1.48837" fill="white"/>
<rect x="14.6973" y="47.4419" width="2.97674" height="2.97674" rx="1.48837" fill="white"/>
<rect x="11.7207" y="44.4651" width="2.97674" height="2.97674" rx="1.48837" fill="white"/>
<rect x="14.6973" y="38.5117" width="2.97674" height="2.97674" rx="1.48837" fill="white"/>
<rect x="17.6743" y="41.4884" width="2.97674" height="2.97674" rx="1.48837" fill="white"/>
<rect x="20.6509" y="44.4651" width="2.97674" height="2.97674" rx="1.48837" fill="white"/>
<rect x="20.6509" y="38.5117" width="2.97674" height="2.97674" rx="1.48837" fill="white"/>
<rect x="23.6279" y="38.5117" width="2.97674" height="2.97674" rx="1.48837" fill="white"/>
<rect x="23.6279" y="41.4884" width="2.97674" height="2.97674" rx="1.48837" fill="white"/>
<rect x="23.6279" y="35.5349" width="2.97674" height="2.97674" rx="1.48837" fill="white"/>
<rect x="26.6045" y="35.5349" width="2.97674" height="2.97674" rx="1.48837" fill="white"/>
<rect x="29.5811" y="38.5117" width="2.97674" height="2.97674" rx="1.48837" fill="white"/>
<rect x="47.4419" y="41.4884" width="2.97674" height="2.97674" rx="1.48837" fill="white"/>
<rect x="47.4419" y="44.4651" width="2.97674" height="2.97674" rx="1.48837" fill="white"/>
<rect x="50.4185" y="44.4651" width="2.97674" height="2.97674" rx="1.48837" fill="white"/>
<rect x="50.4185" y="47.4419" width="2.97674" height="2.97674" rx="1.48837" fill="white"/>
<rect x="50.4185" y="50.4186" width="2.97674" height="2.97674" rx="1.48837" fill="white"/>
<rect x="50.4185" y="53.3954" width="2.97674" height="2.97674" rx="1.48837" fill="white"/>
<rect x="50.4185" y="56.3721" width="2.97674" height="2.97674" rx="1.48837" fill="white"/>
<rect x="50.4185" y="59.3489" width="2.97674" height="2.97674" rx="1.48837" fill="white"/>
<rect x="29.5811" y="59.3489" width="2.97674" height="2.97674" rx="1.48837" fill="white"/>
<rect x="29.5811" y="65.3024" width="2.97674" height="2.97674" rx="1.48837" fill="white"/>
<rect x="26.6045" y="65.3024" width="2.97674" height="2.97674" rx="1.48837" fill="white"/>
<rect x="26.6045" y="68.2791" width="2.97674" height="2.97674" rx="1.48837" fill="white"/>
<rect x="29.5811" y="68.2791" width="2.97674" height="2.97674" rx="1.48837" fill="white"/>
<rect x="32.5581" y="68.2791" width="2.97674" height="2.97674" rx="1.48837" fill="white"/>
<rect x="35.5347" y="68.2791" width="2.97674" height="2.97674" rx="1.48837" fill="white"/>
<rect x="38.5112" y="68.2791" width="2.97674" height="2.97674" rx="1.48837" fill="white"/>
<rect x="41.4883" y="68.2791" width="2.97674" height="2.97674" rx="1.48837" fill="white"/>
<rect x="41.4883" y="71.2558" width="2.97674" height="2.97674" rx="1.48837" fill="white"/>
<rect x="47.4419" y="74.2325" width="2.97674" height="2.97674" rx="1.48837" fill="white"/>
<rect x="53.395" y="62.3256" width="2.97674" height="2.97674" rx="1.48837" fill="white"/>
<rect x="56.3721" y="62.3256" width="2.97674" height="2.97674" rx="1.48837" fill="white"/>
<rect x="59.3486" y="62.3256" width="2.97674" height="2.97674" rx="1.48837" fill="white"/>
<rect x="62.3252" y="62.3256" width="2.97674" height="2.97674" rx="1.48837" fill="white"/>
<rect x="62.3252" y="65.3024" width="2.97674" height="2.97674" rx="1.48837" fill="white"/>
<rect x="62.3252" y="68.2791" width="2.97674" height="2.97674" rx="1.48837" fill="white"/>
<rect x="62.3252" y="71.2558" width="2.97674" height="2.97674" rx="1.48837" fill="white"/>
<rect x="65.3022" y="71.2558" width="2.97674" height="2.97674" rx="1.48837" fill="white"/>
<rect x="68.2788" y="68.2791" width="2.97674" height="2.97674" rx="1.48837" fill="white"/>
<rect x="71.2559" y="65.3024" width="2.97674" height="2.97674" rx="1.48837" fill="white"/>
<rect x="74.2324" y="65.3024" width="2.97674" height="2.97674" rx="1.48837" fill="white"/>
<rect x="74.2324" y="68.2791" width="2.97674" height="2.97674" rx="1.48837" fill="white"/>
<rect x="71.2559" y="71.2558" width="2.97674" height="2.97674" rx="1.48837" fill="white"/>
<rect x="71.2559" y="74.2325" width="2.97674" height="2.97674" rx="1.48837" fill="white"/>
<rect x="74.2324" y="74.2325" width="2.97674" height="2.97674" rx="1.48837" fill="white"/>
<rect x="68.2788" y="74.2325" width="2.97674" height="2.97674" rx="1.48837" fill="white"/>
<rect x="59.3486" y="71.2558" width="2.97674" height="2.97674" rx="1.48837" fill="white"/>
<rect x="62.3252" y="59.3489" width="2.97674" height="2.97674" rx="1.48837" fill="white"/>
<rect x="62.3252" y="56.3721" width="2.97674" height="2.97674" rx="1.48837" fill="white"/>
<rect x="62.3252" y="53.3954" width="2.97674" height="2.97674" rx="1.48837" fill="white"/>
<rect x="62.3252" y="50.4186" width="2.97674" height="2.97674" rx="1.48837" fill="white"/>
<rect x="65.3022" y="50.4186" width="2.97674" height="2.97674" rx="1.48837" fill="white"/>
<rect x="59.3486" y="50.4186" width="2.97674" height="2.97674" rx="1.48837" fill="white"/>
<rect x="56.3721" y="50.4186" width="2.97674" height="2.97674" rx="1.48837" fill="white"/>
<rect x="56.3721" y="56.3721" width="2.97674" height="2.97674" rx="1.48837" fill="white"/>
<rect x="68.2788" y="56.3721" width="2.97674" height="2.97674" rx="1.48837" fill="white"/>
<rect x="53.395" y="50.4186" width="2.97674" height="2.97674" rx="1.48837" fill="white"/>
<rect x="65.3022" y="62.3256" width="2.97674" height="2.97674" rx="1.48837" fill="white"/>
<rect x="65.3022" y="59.3489" width="2.97674" height="2.97674" rx="1.48837" fill="white"/>
<rect x="53.395" y="65.3024" width="2.97674" height="2.97674" rx="1.48837" fill="white"/>
<rect x="53.395" y="68.2791" width="2.97674" height="2.97674" rx="1.48837" fill="white"/>
<rect x="56.3721" y="68.2791" width="2.97674" height="2.97674" rx="1.48837" fill="white"/>
<rect x="53.395" y="71.2558" width="2.97674" height="2.97674" rx="1.48837" fill="white"/>
<rect x="56.3721" y="71.2558" width="2.97674" height="2.97674" rx="1.48837" fill="white"/>
<rect x="35.5347" y="71.2558" width="2.97674" height="2.97674" rx="1.48837" fill="white"/>
<rect x="44.4648" y="68.2791" width="2.97674" height="2.97674" rx="1.48837" fill="white"/>
<rect x="26.6045" y="71.2558" width="2.97674" height="2.97674" rx="1.48837" fill="white"/>
<rect x="29.5811" y="71.2558" width="2.97674" height="2.97674" rx="1.48837" fill="white"/>
<rect x="26.6045" y="74.2325" width="2.97674" height="2.97674" rx="1.48837" fill="white"/>
<rect x="29.5811" y="74.2325" width="2.97674" height="2.97674" rx="1.48837" fill="white"/>
<rect x="32.5581" y="59.3489" width="2.97674" height="2.97674" rx="1.48837" fill="white"/>
<rect x="32.5581" y="65.3024" width="2.97674" height="2.97674" rx="1.48837" fill="white"/>
<rect x="35.5347" y="59.3489" width="2.97674" height="2.97674" rx="1.48837" fill="white"/>
<rect x="35.5347" y="65.3024" width="2.97674" height="2.97674" rx="1.48837" fill="white"/>
<rect x="35.5347" y="56.3721" width="2.97674" height="2.97674" rx="1.48837" fill="white"/>
<rect x="38.5112" y="56.3721" width="2.97674" height="2.97674" rx="1.48837" fill="white"/>
<rect x="41.4883" y="56.3721" width="2.97674" height="2.97674" rx="1.48837" fill="white"/>
<rect x="44.4648" y="56.3721" width="2.97674" height="2.97674" rx="1.48837" fill="white"/>
<rect x="47.4419" y="59.3489" width="2.97674" height="2.97674" rx="1.48837" fill="white"/>
<rect x="47.4419" y="53.3954" width="2.97674" height="2.97674" rx="1.48837" fill="white"/>
<rect x="47.4419" y="50.4186" width="2.97674" height="2.97674" rx="1.48837" fill="white"/>
<rect x="44.4648" y="50.4186" width="2.97674" height="2.97674" rx="1.48837" fill="white"/>
<rect x="41.4883" y="50.4186" width="2.97674" height="2.97674" rx="1.48837" fill="white"/>
<rect x="35.5347" y="53.3954" width="2.97674" height="2.97674" rx="1.48837" fill="white"/>
<rect x="38.5112" y="53.3954" width="2.97674" height="2.97674" rx="1.48837" fill="white"/>
<rect x="41.4883" y="59.3489" width="2.97674" height="2.97674" rx="1.48837" fill="white"/>
<rect x="44.4648" y="62.3256" width="2.97674" height="2.97674" rx="1.48837" fill="white"/>
<rect x="47.4419" y="62.3256" width="2.97674" height="2.97674" rx="1.48837" fill="white"/>
<rect x="38.5112" y="62.3256" width="2.97674" height="2.97674" rx="1.48837" fill="white"/>
<rect x="26.6045" y="56.3721" width="2.97674" height="2.97674" rx="1.48837" fill="white"/>
<rect x="29.5811" y="56.3721" width="2.97674" height="2.97674" rx="1.48837" fill="white"/>
<rect x="29.5811" y="50.4186" width="2.97674" height="2.97674" rx="1.48837" fill="white"/>
<rect x="20.6509" y="50.4186" width="2.97674" height="2.97674" rx="1.48837" fill="white"/>
<rect x="29.5811" y="47.4419" width="2.97674" height="2.97674" rx="1.48837" fill="white"/>
<rect x="26.6045" y="53.3954" width="2.97674" height="2.97674" rx="1.48837" fill="white"/>
<rect x="50.4185" y="62.3256" width="2.97674" height="2.97674" rx="1.48837" fill="white"/>
<rect x="26.6045" y="62.3256" width="2.97674" height="2.97674" rx="1.48837" fill="white"/>
<rect x="50.4185" y="65.3024" width="2.97674" height="2.97674" rx="1.48837" fill="white"/>
<rect x="50.4185" y="41.4884" width="2.97674" height="2.97674" rx="1.48837" fill="white"/>
<rect x="53.395" y="44.4651" width="2.97674" height="2.97674" rx="1.48837" fill="white"/>
<rect x="53.395" y="41.4884" width="2.97674" height="2.97674" rx="1.48837" fill="white"/>
<rect x="56.3721" y="44.4651" width="2.97674" height="2.97674" rx="1.48837" fill="white"/>
<rect x="56.3721" y="38.5117" width="2.97674" height="2.97674" rx="1.48837" fill="white"/>
<rect x="59.3486" y="38.5117" width="2.97674" height="2.97674" rx="1.48837" fill="white"/>
<rect x="62.3252" y="38.5117" width="2.97674" height="2.97674" rx="1.48837" fill="white"/>
<rect x="65.3022" y="38.5117" width="2.97674" height="2.97674" rx="1.48837" fill="white"/>
<rect x="71.2559" y="38.5117" width="2.97674" height="2.97674" rx="1.48837" fill="white"/>
<rect x="71.2559" y="41.4884" width="2.97674" height="2.97674" rx="1.48837" fill="white"/>
<rect x="71.2559" y="44.4651" width="2.97674" height="2.97674" rx="1.48837" fill="white"/>
<rect x="71.2559" y="47.4419" width="2.97674" height="2.97674" rx="1.48837" fill="white"/>
<rect x="68.2788" y="44.4651" width="2.97674" height="2.97674" rx="1.48837" fill="white"/>
<rect x="62.3252" y="44.4651" width="2.97674" height="2.97674" rx="1.48837" fill="white"/>
<rect x="62.3252" y="41.4884" width="2.97674" height="2.97674" rx="1.48837" fill="white"/>
<rect x="59.3486" y="41.4884" width="2.97674" height="2.97674" rx="1.48837" fill="white"/>
<rect x="71.2559" y="56.3721" width="2.97674" height="2.97674" rx="1.48837" fill="white"/>
<rect x="74.2324" y="38.5117" width="2.97674" height="2.97674" rx="1.48837" fill="white"/>
<rect x="74.2324" y="41.4884" width="2.97674" height="2.97674" rx="1.48837" fill="white"/>
<rect x="74.2324" y="47.4419" width="2.97674" height="2.97674" rx="1.48837" fill="white"/>
<rect x="74.2324" y="50.4186" width="2.97674" height="2.97674" rx="1.48837" fill="white"/>
<rect x="74.2324" y="53.3954" width="2.97674" height="2.97674" rx="1.48837" fill="white"/>
<rect x="74.2324" y="56.3721" width="2.97674" height="2.97674" rx="1.48837" fill="white"/>
<rect x="47.4419" y="38.5117" width="2.97674" height="2.97674" rx="1.48837" fill="white"/>
<rect x="35.5347" y="47.4419" width="2.97674" height="2.97674" rx="1.48837" fill="white"/>
<rect x="38.5112" y="47.4419" width="2.97674" height="2.97674" rx="1.48837" fill="white"/>
<rect x="41.4883" y="47.4419" width="2.97674" height="2.97674" rx="1.48837" fill="white"/>
<rect x="2.79053" y="41.4884" width="2.97674" height="2.97674" rx="1.48837" fill="white"/>
<rect x="2.79053" y="44.4651" width="2.97674" height="2.97674" rx="1.48837" fill="white"/>
<rect x="2.79053" y="47.4419" width="2.97674" height="2.97674" rx="1.48837" fill="white"/>
<rect x="2.79053" y="50.4186" width="2.97674" height="2.97674" rx="1.48837" fill="white"/>
<rect x="26.6045" y="20.6512" width="2.97674" height="2.97674" rx="1.48837" fill="white"/>
<rect x="26.6045" y="17.6744" width="2.97674" height="2.97674" rx="1.48837" fill="white"/>
<rect x="35.5347" y="5.76746" width="2.97674" height="2.97674" rx="1.48837" fill="white"/>
<rect x="35.5347" y="8.7442" width="2.97674" height="2.97674" rx="1.48837" fill="white"/>
<rect x="38.5112" y="5.76746" width="2.97674" height="2.97674" rx="1.48837" fill="white"/>
<rect x="41.4883" y="5.76746" width="2.97674" height="2.97674" rx="1.48837" fill="white"/>
<rect x="47.4419" y="5.76746" width="2.97674" height="2.97674" rx="1.48837" fill="white"/>
<rect x="50.4185" y="5.76746" width="2.97674" height="2.97674" rx="1.48837" fill="white"/>
<rect x="50.4185" y="8.7442" width="2.97674" height="2.97674" rx="1.48837" fill="white"/>
<rect x="50.4185" y="11.7209" width="2.97674" height="2.97674" rx="1.48837" fill="white"/>
<rect x="47.4419" y="11.7209" width="2.97674" height="2.97674" rx="1.48837" fill="white"/>
<rect x="44.4648" y="11.7209" width="2.97674" height="2.97674" rx="1.48837" fill="white"/>
<rect x="41.4883" y="11.7209" width="2.97674" height="2.97674" rx="1.48837" fill="white"/>
<rect x="41.4883" y="8.7442" width="2.97674" height="2.97674" rx="1.48837" fill="white"/>
<path d="M19.2163 2.79657C21.6737 2.92133 23.6274 4.95371 23.6274 7.44208V18.9772L23.6216 19.2165C23.5008 21.5944 21.5943 23.501 19.2163 23.6218L18.9771 23.6276H7.44189L7.20264 23.6218C4.82437 23.5014 2.91713 21.5947 2.79639 19.2165L2.79053 18.9772V7.44208C2.79053 4.95348 4.74496 2.92099 7.20264 2.79657L7.44189 2.79071H18.9771L19.2163 2.79657ZM7.44189 5.76727C6.51714 5.76727 5.76709 6.51732 5.76709 7.44208V18.9772C5.76735 19.9018 6.5173 20.6511 7.44189 20.6511H18.9771C19.9014 20.6508 20.6506 19.9016 20.6509 18.9772V7.44208C20.6509 6.51748 19.9016 5.76753 18.9771 5.76727H7.44189ZM16.6138 8.74384C17.1994 8.74384 17.6742 9.21883 17.6743 9.80438V16.614C17.6743 17.1996 17.1994 17.6745 16.6138 17.6745H9.8042C9.21865 17.6743 8.74365 17.1995 8.74365 16.614V9.80438C8.7438 9.21893 9.21874 8.74399 9.8042 8.74384H16.6138Z" fill="white"/>
<path d="M72.7979 2.79657C75.2552 2.92133 77.209 4.95371 77.209 7.44208V18.9772L77.2031 19.2165C77.0824 21.5944 75.1758 23.501 72.7979 23.6218L72.5586 23.6276H61.0234L60.7842 23.6218C58.4059 23.5014 56.4987 21.5947 56.3779 19.2165L56.3721 18.9772V7.44208C56.3721 4.95348 58.3265 2.92099 60.7842 2.79657L61.0234 2.79071H72.5586L72.7979 2.79657ZM61.0234 5.76727C60.0987 5.76727 59.3486 6.51732 59.3486 7.44208V18.9772C59.3489 19.9018 60.0988 20.6511 61.0234 20.6511H72.5586C73.483 20.6508 74.2322 19.9016 74.2324 18.9772V7.44208C74.2324 6.51748 73.4831 5.76753 72.5586 5.76727H61.0234ZM70.1953 8.74384C70.7809 8.74384 71.2557 9.21883 71.2559 9.80438V16.614C71.2559 17.1996 70.781 17.6745 70.1953 17.6745H63.3857C62.8002 17.6743 62.3252 17.1995 62.3252 16.614V9.80438C62.3253 9.21893 62.8003 8.74399 63.3857 8.74384H70.1953Z" fill="white"/>
<path d="M19.2163 56.378C21.6737 56.5028 23.6274 58.5351 23.6274 61.0235V72.5587L23.6216 72.7979C23.5008 75.1759 21.5943 77.0824 19.2163 77.2032L18.9771 77.209H7.44189L7.20264 77.2032C4.82437 77.0828 2.91713 75.1761 2.79639 72.7979L2.79053 72.5587V61.0235C2.79053 58.5349 4.74496 56.5024 7.20264 56.378L7.44189 56.3721H18.9771L19.2163 56.378ZM7.44189 59.3487C6.51714 59.3487 5.76709 60.0987 5.76709 61.0235V72.5587C5.76735 73.4832 6.5173 74.2325 7.44189 74.2325H18.9771C19.9014 74.2322 20.6506 73.483 20.6509 72.5587V61.0235C20.6509 60.0989 19.9016 59.349 18.9771 59.3487H7.44189ZM16.6138 62.3253C17.1994 62.3253 17.6742 62.8003 17.6743 63.3858V70.1954C17.6743 70.7811 17.1994 71.2559 16.6138 71.2559H9.8042C9.21865 71.2558 8.74365 70.781 8.74365 70.1954V63.3858C8.7438 62.8003 9.21874 62.3254 9.8042 62.3253H16.6138Z" fill="white"/>
<path d="M36.8206 42.2155C36.4775 42.4192 36.4777 42.9159 36.821 43.1194L39.3015 44.5899C39.6518 44.7976 40.095 44.5451 40.095 44.1378V41.194C40.095 40.7865 39.6514 40.534 39.3011 40.7421L36.8206 42.2155Z" fill="white" stroke="black" stroke-width="0.525559"/>
<path d="M36.8526 33.5586C36.5023 33.3509 36.0591 33.6034 36.0591 34.0107V36.9508C36.0591 37.358 36.5023 37.6105 36.8526 37.4029L39.3324 35.9328C39.6758 35.7293 39.6758 35.2322 39.3324 35.0286L36.8526 33.5586Z" fill="white" stroke="black" stroke-width="0.525559"/>
<path d="M40.095 36.4032C40.095 35.996 39.6518 35.7435 39.3015 35.9511L36.821 37.4216C36.4777 37.6251 36.4775 38.1218 36.8206 38.3256L39.3011 39.7989C39.6514 40.007 40.095 39.7545 40.095 39.3471V36.4032Z" fill="white" stroke="black" stroke-width="0.525559"/>
<path d="M43.3372 42.1962C43.6875 42.4043 44.1312 42.1518 44.1312 41.7443V38.8005C44.1312 38.3932 43.6879 38.1407 43.3376 38.3484L40.8571 39.8189C40.5139 40.0224 40.5136 40.5191 40.8567 40.7228L43.3372 42.1962Z" fill="white" stroke="black" stroke-width="0.525559"/>
<path d="M40.0952 39.3471C40.0952 39.7545 40.5388 40.007 40.8892 39.7989L43.3697 38.3256C43.7127 38.1218 43.7125 37.6251 43.3693 37.4216L40.8888 35.9511C40.5384 35.7435 40.0952 35.996 40.0952 36.4032V39.3471Z" fill="white" stroke="black" stroke-width="0.525559"/>
<path d="M43.3693 43.1194C43.7125 42.9159 43.7127 42.4192 43.3697 42.2155L40.8892 40.7421C40.5388 40.534 40.0952 40.7865 40.0952 41.194V44.1378C40.0952 44.5451 40.5384 44.7976 40.8888 44.5899L43.3693 43.1194Z" fill="white" stroke="black" stroke-width="0.525559"/>
</svg>
