<svg width="9" height="9" viewBox="0 0 9 9" fill="none" xmlns="http://www.w3.org/2000/svg">
<path opacity="0.8" d="M0.96967 6.21967C0.676777 6.51256 0.676777 6.98744 0.96967 7.28033C1.26256 7.57322 1.73744 7.57322 2.03033 7.28033L1.5 6.75L0.96967 6.21967ZM8.25 0.75C8.25 0.335786 7.91421 0 7.5 0H0.75C0.335786 0 0 0.335786 0 0.75C0 1.16421 0.335786 1.5 0.75 1.5H6.75V7.5C6.75 7.91421 7.08579 8.25 7.5 8.25C7.91421 8.25 8.25 7.91421 8.25 7.5V0.75ZM1.5 6.75L2.03033 7.28033L8.03033 1.28033L7.5 0.75L6.96967 0.21967L0.96967 6.21967L1.5 6.75Z" fill="#62666E"/>
</svg>
