<svg width="9" height="13" viewBox="0 0 9 13" fill="none" xmlns="http://www.w3.org/2000/svg">
<path d="M1.47266 12.6509C0.990234 12.6509 0.624186 12.5197 0.374512 12.2573C0.124837 11.9992 0 11.6099 0 11.0894V6.58887C0 6.07259 0.124837 5.68538 0.374512 5.42725C0.624186 5.16911 0.990234 5.04004 1.47266 5.04004H7.41406C7.89648 5.04004 8.26253 5.16911 8.51221 5.42725C8.76188 5.68538 8.88672 6.07259 8.88672 6.58887V11.0894C8.88672 11.6099 8.76188 11.9992 8.51221 12.2573C8.26253 12.5197 7.89648 12.6509 7.41406 12.6509H1.47266ZM1.16162 5.57324V3.55469C1.16162 2.77181 1.31396 2.118 1.61865 1.59326C1.92757 1.06429 2.33171 0.666504 2.83105 0.399902C3.3304 0.133301 3.86784 0 4.44336 0C5.01888 0 5.55631 0.133301 6.05566 0.399902C6.55501 0.666504 6.95703 1.06429 7.26172 1.59326C7.57064 2.118 7.7251 2.77181 7.7251 3.55469V5.57324H6.53809V3.43408C6.53809 2.93896 6.44076 2.52214 6.24609 2.18359C6.05566 1.84082 5.80176 1.58057 5.48438 1.40283C5.16699 1.2251 4.81999 1.13623 4.44336 1.13623C4.06673 1.13623 3.71973 1.2251 3.40234 1.40283C3.08496 1.58057 2.83105 1.84082 2.64062 2.18359C2.4502 2.52214 2.35498 2.93896 2.35498 3.43408V5.57324H1.16162Z" fill="white"/>
</svg>
